{"glyphs":{"0":{"ha":826,"x_min":71,"x_max":756,"o":"m 413 1065 q 669 893 574 1065 q 756 517 756 739 q 672 149 756 299 q 424 -18 581 -18 q 158 150 256 -18 q 71 521 71 301 q 157 896 71 742 q 413 1065 253 1065 m 424 72 q 578 215 519 72 q 632 528 632 346 q 578 828 632 707 q 413 964 518 964 q 246 825 308 964 q 189 518 189 699 q 247 211 189 336 q 424 72 311 72 z "},"1":{"ha":826,"x_min":264,"x_max":563,"o":"m 461 926 l 325 926 q 264 978 264 926 q 324 1028 264 1028 l 494 1028 q 556 1003 544 1028 q 563 932 563 990 l 563 53 q 513 0 563 0 q 461 53 461 0 l 461 926 z "},"2":{"ha":826,"x_min":118,"x_max":707,"o":"m 118 763 q 203 993 118 913 q 390 1065 276 1065 q 607 989 514 1065 q 707 783 707 907 q 610 536 707 664 l 278 101 l 654 101 q 706 51 706 101 q 654 0 706 0 l 208 0 q 132 50 132 0 q 153 101 132 74 l 531 615 q 588 771 588 693 q 526 910 588 854 q 390 967 465 967 q 281 917 324 967 q 232 756 232 861 q 176 715 232 715 q 118 763 118 715 z "},"3":{"ha":826,"x_min":110,"x_max":715,"o":"m 428 1064 q 614 981 544 1064 q 676 792 676 904 q 564 539 676 636 q 715 299 715 468 q 632 82 715 175 q 404 -18 542 -18 q 118 163 201 -18 q 110 200 110 181 q 126 245 110 226 q 163 264 142 264 q 207 235 189 264 q 271 142 253 158 q 407 89 324 89 q 551 149 499 89 q 599 282 599 203 q 553 417 599 360 q 417 483 503 478 q 353 535 353 486 q 416 585 353 585 q 521 647 479 585 q 563 789 563 710 q 524 908 563 861 q 394 961 479 961 q 267 803 275 961 q 210 743 264 743 q 150 813 150 743 q 232 999 150 929 q 428 1064 310 1064 z "},"4":{"ha":826,"x_min":65,"x_max":760,"o":"m 540 263 l 139 263 q 65 325 65 263 q 83 381 65 353 l 446 965 q 553 1031 486 1031 q 616 1004 590 1031 q 642 931 642 978 l 642 368 l 708 368 q 760 313 760 368 q 714 264 760 264 l 642 263 l 642 65 q 590 0 642 0 q 540 65 540 0 l 540 263 m 196 368 l 540 368 l 540 931 l 196 368 z "},"5":{"ha":826,"x_min":115,"x_max":764,"o":"m 361 1028 l 658 1028 q 696 1010 682 1028 q 710 968 710 992 q 658 915 710 915 l 372 915 l 326 629 q 446 658 388 658 q 693 483 617 658 q 692 157 764 317 q 403 -18 611 -18 q 133 106 226 -18 q 115 158 115 128 q 151 214 115 214 q 196 182 174 214 q 276 119 222 146 q 410 88 340 88 q 564 157 508 88 q 614 313 614 219 q 561 479 614 408 q 406 556 501 556 q 331 535 374 556 q 264 514 289 514 q 211 565 211 514 q 213 585 211 574 l 282 972 q 361 1028 292 1028 z "},"6":{"ha":826,"x_min":108,"x_max":718,"o":"m 540 943 q 297 640 364 779 q 446 669 382 669 q 649 567 574 669 q 718 336 718 472 q 642 93 718 193 q 413 -18 557 -18 q 181 100 264 -18 q 108 356 108 204 q 114 438 108 397 q 450 1011 163 751 q 497 1032 474 1032 q 538 1015 521 1032 q 556 976 556 997 q 540 943 556 957 m 413 574 q 271 497 322 574 q 224 332 224 431 q 272 161 224 232 q 413 83 325 83 q 550 163 497 83 q 596 336 596 235 q 551 499 596 433 q 413 574 501 574 z "},"7":{"ha":826,"x_min":99,"x_max":728,"o":"m 163 1029 l 654 1029 q 728 989 728 1029 q 710 928 728 968 l 342 57 q 275 0 317 0 q 229 54 229 0 q 239 100 229 76 l 586 917 l 163 917 q 99 974 99 917 q 163 1029 99 1029 z "},"8":{"ha":826,"x_min":103,"x_max":722,"o":"m 276 574 q 151 803 151 651 q 217 982 151 908 q 404 1064 289 1064 q 604 983 528 1064 q 675 803 675 908 q 551 574 675 658 q 681 454 636 532 q 722 297 722 383 q 644 81 722 172 q 426 -18 560 -18 q 186 82 276 -18 q 103 301 103 174 q 146 460 103 389 q 276 574 192 538 m 404 517 q 267 450 318 517 q 219 304 219 390 q 268 161 219 219 q 415 96 322 96 q 556 160 503 96 q 601 301 601 218 q 553 449 601 389 q 404 517 497 517 m 415 618 q 526 671 486 618 q 563 788 563 718 q 526 907 563 858 q 415 963 485 963 q 292 910 338 963 q 253 796 253 864 q 294 674 253 725 q 415 618 340 618 z "},"9":{"ha":826,"x_min":40,"x_max":660,"o":"m 467 392 q 332 358 397 358 q 115 467 196 358 q 40 706 40 565 q 121 951 40 851 q 365 1064 210 1064 q 590 943 510 1064 q 660 686 660 839 q 568 318 660 510 q 292 -11 465 101 q 268 -18 282 -18 q 226 -2 246 -18 q 206 35 206 14 q 226 74 206 56 q 467 392 421 243 m 365 963 q 217 879 272 963 q 167 700 167 806 q 213 535 167 601 q 354 460 264 460 q 501 535 449 460 q 549 700 549 600 q 501 879 549 804 q 365 963 449 963 z "}," ":{"ha":375,"x_min":0,"x_max":0,"o":""},"#":{"ha":876,"x_min":0,"x_max":746,"o":"m 217 719 l 256 1014 q 300 1065 263 1065 q 335 1050 319 1065 q 349 1014 351 1035 l 307 719 l 501 719 l 543 1014 q 588 1067 550 1067 q 622 1051 607 1067 q 633 1014 636 1036 l 594 719 q 619 721 597 719 q 656 722 640 722 q 746 675 746 722 q 685 629 746 629 l 583 629 l 549 404 q 572 404 553 404 q 607 406 593 406 q 699 357 699 406 q 601 307 699 307 q 563 308 585 307 q 538 310 542 310 l 500 68 q 440 -1 490 -1 q 408 51 401 -1 l 446 310 l 250 310 l 215 68 q 156 -1 204 -1 q 122 51 115 -1 l 160 310 q 135 308 157 310 q 99 307 114 307 q 0 357 0 307 q 101 407 0 407 q 144 406 119 407 q 171 404 168 404 l 206 629 l 103 629 q 50 676 50 629 q 103 719 50 719 l 217 719 m 296 629 l 261 404 l 457 404 l 490 629 l 296 629 z "},"$":{"ha":740,"x_min":0,"x_max":610,"o":"m 263 1069 q 263 1122 263 1081 q 292 1167 261 1167 q 321 1125 321 1167 l 321 1069 q 456 1036 379 1069 q 546 946 546 996 q 499 897 546 897 q 431 931 485 897 q 321 968 376 965 l 321 618 q 544 482 469 572 q 610 301 610 403 q 526 92 610 183 q 321 -1 439 -1 q 322 -69 321 -17 q 293 -107 322 -107 q 263 -65 264 -107 l 263 -1 q 150 21 221 -4 q 49 68 88 43 q 28 108 28 82 q 74 158 28 158 q 151 125 89 158 q 263 89 214 92 l 263 517 q 63 628 132 549 q 0 789 0 697 q 73 971 0 889 q 263 1069 146 1053 m 321 100 q 446 169 397 113 q 494 294 494 225 q 321 494 494 436 l 321 100 m 263 968 q 154 910 194 956 q 114 807 114 864 q 150 710 114 753 q 263 640 190 663 l 263 968 z "},"%":{"ha":1106,"x_min":0,"x_max":975,"o":"m 749 513 q 918 431 854 513 q 975 251 975 357 q 919 78 975 147 q 749 -1 857 -1 q 574 81 639 -1 q 514 261 514 156 q 571 433 514 364 q 749 513 636 513 m 749 78 q 853 131 815 78 q 888 250 888 179 q 851 375 888 324 q 749 433 813 433 q 643 378 682 433 q 608 257 608 328 q 643 133 608 183 q 749 78 682 78 m 232 553 q 60 635 125 553 q 0 817 0 711 q 57 989 0 919 q 232 1065 121 1065 q 404 985 340 1065 q 463 808 463 913 q 406 632 463 704 q 232 553 340 553 m 232 632 q 339 686 299 632 q 374 807 374 735 q 336 933 374 879 q 232 986 299 986 q 129 932 167 986 q 94 811 94 883 q 129 688 94 739 q 232 632 168 632 m 254 49 l 632 1018 q 686 1060 647 1060 q 728 1015 728 1060 q 719 979 728 999 l 332 0 q 300 -18 325 -18 q 250 26 250 -18 q 254 49 250 38 z "},"&":{"ha":1006,"x_min":0,"x_max":875,"o":"m 338 697 q 443 768 407 719 q 478 861 478 811 q 446 944 478 910 q 360 978 414 978 q 263 872 263 978 q 338 697 263 767 m 656 150 q 347 -31 536 -31 q 105 64 210 -31 q 0 289 0 158 q 244 640 0 485 q 157 853 157 732 q 209 1005 157 943 q 353 1067 261 1067 q 518 1000 453 1067 q 578 849 578 936 q 406 618 578 692 l 667 321 l 750 460 q 819 514 781 514 q 861 481 851 514 q 846 404 872 446 l 739 229 l 863 93 q 875 60 875 79 q 858 17 875 36 q 819 -3 840 -3 q 783 14 800 -3 l 656 150 m 301 561 q 113 288 113 436 q 183 132 113 196 q 349 68 253 68 q 600 229 503 68 l 301 561 z "},"'":{"ha":338,"x_min":0,"x_max":207,"o":"m 200 982 l 110 778 q 56 740 93 740 q 17 754 35 740 q 0 788 0 768 q 3 803 0 796 l 88 1017 q 150 1068 107 1068 q 190 1051 172 1068 q 207 1011 207 1035 q 200 982 207 997 z "},"(":{"ha":382,"x_min":0,"x_max":251,"o":"m 200 957 q 108 769 142 899 q 75 494 75 646 q 115 186 75 326 q 243 -53 160 29 q 251 -72 251 -61 q 238 -97 251 -86 q 206 -108 225 -108 q 154 -83 179 -108 q 40 156 83 -12 q 0 503 0 317 q 139 1013 0 874 q 172 1029 156 1029 q 211 985 211 1029 q 200 957 211 968 z "},")":{"ha":382,"x_min":0,"x_max":251,"o":"m 51 957 q 143 769 110 899 q 176 494 176 646 q 136 186 176 326 q 8 -53 92 29 q 0 -72 0 -61 q 13 -97 0 -86 q 46 -108 26 -108 q 96 -83 72 -108 q 211 156 168 -12 q 251 503 251 317 q 113 1013 251 874 q 78 1029 96 1029 q 40 985 40 1029 q 51 957 40 968 z "},"*":{"ha":826,"x_min":182,"x_max":643,"o":"m 376 847 q 365 1010 365 1008 q 413 1049 365 1049 q 456 1007 458 1049 l 444 847 q 514 899 479 874 q 594 939 574 939 q 628 925 614 939 q 643 892 643 911 q 606 847 643 863 l 467 790 l 606 735 q 643 682 643 719 q 593 636 643 636 q 513 678 565 636 q 444 735 478 706 q 456 578 456 581 q 410 524 456 524 q 365 585 365 524 q 376 735 365 585 q 308 682 342 708 q 225 639 247 639 q 186 682 186 639 q 217 735 186 722 l 354 790 l 217 847 q 182 893 182 861 q 228 938 182 938 q 307 900 254 938 q 376 847 342 874 z "},"+":{"ha":826,"x_min":40,"x_max":785,"o":"m 350 438 l 350 697 q 403 751 350 751 q 445 737 426 751 q 464 697 464 722 l 464 438 l 715 438 q 766 419 747 438 q 785 378 785 401 q 715 321 785 321 l 464 321 l 464 51 q 446 13 464 28 q 404 -1 428 -1 q 350 51 350 -1 l 350 321 l 97 321 q 40 381 40 321 q 97 438 40 438 l 350 438 z "},",":{"ha":336,"x_min":0,"x_max":211,"o":"m 203 89 l 97 -157 q 51 -192 82 -192 q 16 -176 32 -192 q 0 -140 0 -161 q 4 -122 0 -132 l 97 106 q 154 150 117 150 q 195 131 179 150 q 203 89 211 111 z "},"-":{"ha":517,"x_min":4,"x_max":411,"o":"m 65 438 l 351 438 q 411 383 411 438 q 351 332 411 332 l 65 332 q 4 383 4 332 q 21 421 4 404 q 65 438 38 438 z "},".":{"ha":276,"x_min":0,"x_max":146,"o":"m 72 140 q 126 117 106 140 q 146 65 146 94 q 76 0 146 0 q 19 24 40 0 q 0 72 0 43 q 19 120 0 100 q 72 140 38 140 z "},"/":{"ha":826,"x_min":163,"x_max":656,"o":"m 651 997 l 271 26 q 213 -28 249 -28 q 175 0 186 -28 q 179 71 163 29 l 563 1017 q 615 1068 583 1068 q 656 1019 656 1068 q 651 997 656 1008 z "},":":{"ha":274,"x_min":0,"x_max":143,"o":"m 69 632 q 124 609 104 632 q 143 557 143 586 q 75 489 143 489 q 19 514 40 489 q 0 565 0 535 q 69 632 0 632 m 75 0 q 0 69 0 0 q 19 119 0 99 q 69 140 38 140 q 125 117 103 140 q 143 65 143 94 q 75 0 143 0 z "},";":{"ha":293,"x_min":-49,"x_max":164,"o":"m 90 618 q 144 596 124 618 q 164 543 164 574 q 94 476 164 476 q 40 499 60 476 q 19 551 19 522 q 90 618 19 618 m -47 -129 l 36 82 q 106 132 56 132 q 158 93 158 132 q 156 79 158 86 l 58 -157 q 11 -182 47 -182 q -30 -170 -11 -182 q -49 -142 -49 -158 q -47 -129 -49 -135 z "},"<":{"ha":826,"x_min":26,"x_max":799,"o":"m 751 654 l 179 379 l 740 107 q 792 42 792 82 q 746 1 792 1 q 692 17 722 1 l 75 324 q 26 388 26 347 q 75 450 26 428 l 707 744 q 775 751 747 764 q 799 714 799 742 q 751 654 799 676 z "},"=":{"ha":826,"x_min":36,"x_max":790,"o":"m 86 594 l 739 594 q 790 542 790 594 q 739 493 790 493 l 86 493 q 36 546 36 493 q 86 594 36 594 m 86 206 q 36 256 36 206 q 86 307 36 307 l 739 307 q 790 257 790 307 q 739 206 790 206 l 86 206 z "},">":{"ha":826,"x_min":26,"x_max":800,"o":"m 633 371 l 72 657 q 26 715 26 681 q 75 758 26 758 q 108 751 92 758 l 738 443 q 800 378 800 413 q 726 304 800 339 l 108 8 q 78 1 93 1 q 28 50 28 1 q 72 110 28 89 l 633 371 z "},"?":{"ha":649,"x_min":0,"x_max":518,"o":"m 218 140 q 272 119 253 140 q 292 67 292 97 q 221 0 292 0 q 167 22 188 0 q 147 74 147 44 q 218 140 147 140 m 164 332 l 164 564 q 226 624 164 603 q 343 675 318 656 q 406 826 406 722 q 350 925 406 881 q 226 969 294 969 q 79 863 125 969 q 44 839 69 839 q 0 885 0 839 q 4 907 0 894 q 103 1028 32 985 q 251 1068 168 1068 q 435 1004 358 1068 q 518 815 518 933 q 279 529 518 581 l 279 332 q 222 272 279 272 q 181 288 199 272 q 164 332 164 304 z "},"@":{"ha":1178,"x_min":0,"x_max":1047,"o":"m 714 708 q 738 767 718 746 q 781 788 758 788 q 819 743 819 788 q 753 536 819 707 q 694 321 688 374 q 738 275 701 275 q 882 382 800 275 q 968 607 968 494 q 821 874 968 774 q 518 963 692 963 q 197 824 314 963 q 92 518 92 700 q 199 203 92 333 q 519 60 319 60 q 721 92 621 60 q 894 196 835 129 q 954 229 926 231 q 978 203 978 229 q 953 150 978 178 q 519 -19 801 -19 q 131 149 276 -19 q 0 518 0 301 q 129 878 0 732 q 519 1042 272 1042 q 886 936 740 1042 q 1047 614 1047 821 q 935 318 1047 449 q 721 185 836 203 q 586 275 603 167 q 411 183 528 183 q 268 239 326 183 q 203 411 203 301 q 306 693 203 564 q 531 822 408 822 q 714 708 638 822 m 318 417 q 418 289 318 289 q 578 375 501 289 q 661 594 661 468 q 557 710 661 710 q 400 632 472 710 q 318 417 318 544 z "},"A":{"ha":900,"x_min":0,"x_max":811,"o":"m 193 321 l 604 321 l 401 886 l 193 321 m 650 207 l 158 207 l 107 53 q 44 -1 89 -1 q 0 47 0 -1 q 6 76 0 60 l 319 965 q 400 1028 343 1028 q 481 965 457 1028 l 806 76 q 811 46 811 60 q 764 -1 811 -1 q 714 33 726 -1 l 650 207 z "},"B":{"ha":760,"x_min":0,"x_max":646,"o":"m 0 961 q 57 1028 0 1028 l 228 1028 q 488 951 397 1028 q 565 783 565 885 q 522 645 565 708 q 411 561 479 582 q 588 461 524 542 q 646 289 646 388 q 569 90 646 172 q 344 0 485 0 l 81 0 q 19 11 35 0 q 0 68 0 24 l 0 961 m 103 101 l 310 101 q 475 158 415 101 q 531 288 531 211 q 463 436 531 374 q 261 506 388 506 l 103 506 l 103 101 m 228 596 q 401 647 339 596 q 457 763 457 693 q 406 875 457 828 q 261 926 350 926 l 103 926 l 103 596 l 228 596 z "},"C":{"ha":836,"x_min":0,"x_max":804,"o":"m 719 182 q 757 199 736 199 q 790 185 776 199 q 804 150 804 171 q 778 100 804 124 q 481 -17 651 -17 q 150 124 289 -17 q 0 522 0 276 q 139 910 0 757 q 451 1064 267 1050 q 778 949 639 1078 q 804 899 804 925 q 790 865 804 879 q 757 850 776 850 q 719 867 736 850 q 500 957 629 957 q 244 846 351 957 q 126 521 126 722 q 243 200 126 322 q 496 90 349 90 q 719 182 628 90 z "},"D":{"ha":874,"x_min":0,"x_max":769,"o":"m 0 961 q 81 1028 0 1028 l 356 1028 q 664 863 547 1028 q 769 501 769 713 q 668 156 769 296 q 356 0 554 0 l 58 0 q 13 10 25 0 q 0 57 0 21 l 0 961 m 310 926 l 103 926 l 103 101 l 321 101 q 571 231 478 101 q 654 515 654 349 q 569 799 654 683 q 310 926 474 926 z "},"E":{"ha":547,"x_min":0,"x_max":481,"o":"m 0 965 q 57 1028 0 1028 l 410 1028 q 461 976 461 1028 q 410 926 461 926 l 101 926 l 101 585 l 399 585 q 450 532 450 585 q 399 483 450 483 l 101 483 l 101 101 l 421 101 q 481 50 481 101 q 421 0 481 0 l 57 0 q 10 13 19 0 q 0 63 0 25 l 0 965 z "},"F":{"ha":529,"x_min":0,"x_max":463,"o":"m 0 961 q 57 1028 0 1028 l 411 1028 q 463 976 463 1028 q 411 926 463 926 l 103 926 l 103 574 l 378 574 q 429 521 429 574 q 378 471 429 471 l 103 471 l 103 42 q 50 0 103 0 q 0 42 0 0 l 0 961 z "},"G":{"ha":956,"x_min":0,"x_max":882,"o":"m 769 486 l 603 486 q 542 536 542 486 q 607 588 542 588 l 792 588 q 869 551 851 588 q 882 464 882 528 q 750 103 882 236 q 457 -17 632 -17 q 144 114 274 -17 q 0 504 0 260 q 147 914 0 754 q 479 1064 285 1064 q 785 940 649 1064 q 808 896 808 918 q 792 862 808 875 q 756 849 776 849 q 714 865 732 849 q 492 954 617 954 q 240 839 344 954 q 126 508 126 713 q 236 197 126 315 q 472 89 335 89 q 682 186 600 89 q 769 486 775 294 z "},"H":{"ha":899,"x_min":0,"x_max":778,"o":"m 0 979 q 50 1031 0 1031 q 101 979 101 1031 l 101 574 l 675 574 l 675 979 q 725 1031 675 1031 q 778 979 778 1031 l 778 50 q 725 -1 778 -1 q 675 50 675 -1 l 675 471 l 101 471 l 101 50 q 51 -1 101 -1 q 0 50 0 -1 l 0 979 z "},"I":{"ha":224,"x_min":0,"x_max":101,"o":"m 0 979 q 50 1031 0 1031 q 101 979 101 1031 l 101 51 q 50 0 101 0 q 0 51 0 0 l 0 979 z "},"J":{"ha":557,"x_min":0,"x_max":438,"o":"m 438 979 l 438 207 q 367 36 438 99 q 206 -19 301 -19 q 17 51 94 -19 q 0 90 0 67 q 47 143 0 143 q 106 111 60 143 q 207 79 151 79 q 300 113 267 79 q 333 207 333 147 l 333 979 q 385 1031 333 1031 q 438 979 438 1031 z "},"K":{"ha":782,"x_min":0,"x_max":704,"o":"m 0 988 q 50 1031 0 1031 q 103 988 103 1031 l 103 596 l 588 1015 q 619 1028 603 1028 q 659 1010 642 1028 q 676 972 676 993 q 663 940 676 953 l 193 539 l 686 90 q 704 53 704 74 q 689 17 704 32 q 651 1 674 1 q 604 22 626 1 l 103 494 l 103 44 q 53 -1 103 -1 q 0 44 0 -1 l 0 988 z "},"L":{"ha":483,"x_min":0,"x_max":418,"o":"m 0 979 q 50 1031 0 1031 q 101 979 101 1031 l 101 101 l 367 101 q 418 51 418 101 q 367 0 418 0 l 68 0 q 0 79 0 0 l 0 979 z "},"M":{"ha":1219,"x_min":-8,"x_max":1119,"o":"m 322 940 l 550 172 l 790 940 q 886 1031 818 1031 q 972 929 957 1031 l 1115 63 q 1106 18 1119 35 q 1068 1 1092 1 q 1010 57 1018 1 l 882 906 l 607 60 q 550 0 586 0 q 493 60 513 0 l 229 906 l 104 58 q 44 1 96 1 q 1 65 -8 1 l 139 929 q 228 1033 154 1033 q 322 940 294 1033 z "},"N":{"ha":886,"x_min":0,"x_max":765,"o":"m 0 969 q 50 1031 0 1031 q 122 981 89 1031 l 664 183 l 664 976 q 714 1029 664 1029 q 765 976 765 1029 l 765 61 q 715 -1 765 -1 q 646 42 675 -1 l 101 836 l 101 53 q 51 -1 101 -1 q 0 53 0 -1 l 0 969 z "},"O":{"ha":996,"x_min":0,"x_max":893,"o":"m 442 1063 q 779 893 654 1063 q 893 521 893 740 q 781 151 893 303 q 442 -17 656 -17 q 111 154 235 -17 q 0 526 0 307 q 110 896 0 744 q 442 1063 232 1063 m 442 961 q 197 826 286 961 q 117 531 117 706 q 199 225 117 351 q 442 86 290 86 q 693 221 601 86 q 776 518 776 342 q 692 822 776 697 q 442 961 599 961 z "},"P":{"ha":703,"x_min":0,"x_max":636,"o":"m 0 974 q 57 1029 0 1029 l 310 1029 q 556 931 465 1029 q 636 714 636 843 q 560 500 636 589 q 332 404 475 404 l 101 404 l 101 51 q 51 0 101 0 q 0 51 0 0 l 0 974 m 276 928 l 101 928 l 101 506 l 299 506 q 474 571 408 506 q 533 715 533 631 q 469 861 533 801 q 276 928 399 928 z "},"Q":{"ha":1011,"x_min":0,"x_max":910,"o":"m 742 107 q 432 -18 646 -18 q 110 156 232 -18 q 0 535 0 313 q 108 899 0 751 q 443 1063 231 1063 q 779 894 658 1063 q 885 524 885 746 q 810 186 885 336 q 899 89 826 167 q 910 57 910 76 q 895 18 910 36 q 863 0 881 0 q 833 14 847 0 l 742 107 m 443 83 q 671 186 589 83 q 596 260 660 197 q 576 300 576 278 q 594 340 576 324 q 632 357 611 357 q 665 342 651 357 l 731 276 q 775 533 775 393 q 700 826 775 713 q 443 961 613 961 q 193 825 285 961 q 111 528 111 704 q 194 222 111 349 q 443 83 288 83 z "},"R":{"ha":706,"x_min":0,"x_max":607,"o":"m 0 974 q 79 1029 0 1029 l 288 1029 q 531 947 443 1029 q 607 765 607 875 q 535 578 607 657 q 332 493 457 493 l 239 493 l 585 93 q 603 47 603 72 q 557 -3 603 -3 q 506 26 531 -3 l 101 493 l 101 63 q 51 -1 101 -1 q 0 63 0 -1 l 0 974 m 299 928 l 101 928 l 101 594 l 299 594 q 456 649 396 594 q 508 765 508 696 q 457 878 508 832 q 299 928 399 928 z "},"S":{"ha":719,"x_min":0,"x_max":617,"o":"m 457 906 q 293 957 388 957 q 175 922 221 957 q 124 807 124 882 q 251 665 124 728 q 489 544 468 560 q 617 299 617 451 q 513 61 617 147 q 276 -18 418 -18 q 38 53 144 -18 q 0 114 0 78 q 47 161 0 161 q 96 144 71 161 q 297 86 190 86 q 443 133 388 86 q 506 292 506 188 q 379 479 506 413 q 146 585 263 532 q 19 796 19 658 q 103 997 19 925 q 293 1063 178 1063 q 514 990 415 1063 q 553 926 553 961 q 510 885 553 885 q 457 906 485 885 z "},"T":{"ha":696,"x_min":0,"x_max":621,"o":"m 260 928 l 56 928 q 0 978 0 928 q 56 1029 0 1029 l 568 1029 q 621 978 621 1029 q 568 928 621 928 l 363 928 l 363 58 q 313 0 363 0 q 260 58 260 0 l 260 928 z "},"U":{"ha":906,"x_min":0,"x_max":789,"o":"m 0 969 q 57 1029 0 1029 q 113 969 113 1029 l 113 351 q 258 121 113 192 q 529 114 394 54 q 675 351 675 181 l 675 969 q 732 1029 675 1029 q 789 969 789 1029 l 789 340 q 664 74 789 174 q 389 -17 551 -17 q 121 72 231 -17 q 0 340 0 171 l 0 969 z "},"V":{"ha":875,"x_min":0,"x_max":786,"o":"m 107 990 l 393 172 l 676 990 q 725 1031 690 1031 q 767 1013 747 1031 q 786 974 786 996 q 782 957 786 965 l 472 86 q 393 -1 442 -1 q 322 74 350 -1 l 4 957 q 0 982 0 969 q 53 1032 0 1032 q 107 990 92 1032 z "},"W":{"ha":1215,"x_min":-4,"x_max":1115,"o":"m 107 979 l 250 128 l 486 978 q 560 1031 501 1031 q 632 978 618 1031 l 857 128 l 997 976 q 1057 1033 1007 1033 q 1099 1015 1082 1033 q 1110 967 1115 996 l 949 71 q 863 -1 936 -1 q 789 49 803 -1 l 560 883 l 332 71 q 240 0 313 0 q 160 60 169 0 l 1 967 q 13 1013 -4 996 q 53 1031 29 1031 q 107 979 99 1031 z "},"X":{"ha":878,"x_min":0,"x_max":789,"o":"m 325 565 l 53 949 q 40 983 40 967 q 55 1017 40 1004 q 89 1031 69 1031 q 135 1006 117 1031 l 389 657 l 613 1004 q 656 1029 629 1029 q 690 1015 675 1029 q 706 979 706 1000 q 694 947 706 963 l 444 578 l 769 89 q 789 38 789 60 q 749 -3 789 -3 q 696 29 718 -3 l 383 483 l 93 31 q 40 -3 72 -3 q 0 39 0 -3 q 17 86 0 61 l 325 565 z "},"Y":{"ha":747,"x_min":0,"x_max":665,"o":"m 274 483 l 10 946 q 0 982 0 964 q 46 1031 0 1031 q 89 1001 72 1031 l 332 596 l 569 999 q 619 1031 589 1031 q 665 986 665 1031 q 657 957 665 971 l 378 483 l 378 60 q 326 0 378 0 q 274 60 274 0 l 274 483 z "},"Z":{"ha":792,"x_min":0,"x_max":718,"o":"m 551 928 l 72 928 q 19 978 19 928 q 72 1029 19 1029 l 631 1029 q 701 983 701 1029 q 675 917 701 956 l 139 101 l 664 101 q 718 53 718 101 q 664 0 718 0 l 49 0 q 0 58 0 0 q 15 113 0 90 l 551 928 z "},"[":{"ha":333,"x_min":0,"x_max":203,"o":"m 0 985 q 57 1053 0 1053 l 158 1053 q 203 1003 203 1053 q 160 961 203 961 l 101 963 l 101 3 l 160 3 q 203 -40 203 3 q 158 -87 203 -87 l 57 -87 q 0 -19 0 -87 l 0 985 z "},"\\":{"ha":617,"x_min":0,"x_max":486,"o":"m 106 996 l 483 49 q 486 33 486 42 q 472 0 486 15 q 438 -15 457 -15 q 381 38 401 -15 l 4 985 q 0 1006 0 996 q 43 1049 0 1049 q 106 996 85 1049 z "},"]":{"ha":333,"x_min":0,"x_max":203,"o":"m 101 951 q 43 950 85 951 q 0 994 0 950 q 43 1042 0 1042 l 147 1042 q 203 974 203 1042 l 203 -19 q 147 -87 203 -87 l 43 -87 q 0 -36 0 -87 q 36 3 0 3 l 101 3 l 101 951 z "},"^":{"ha":826,"x_min":40,"x_max":786,"o":"m 476 1007 l 775 460 q 786 418 786 439 q 742 369 786 369 q 669 426 700 369 l 419 894 l 156 426 q 82 371 125 371 q 40 417 40 371 q 53 460 40 436 l 363 1007 q 419 1042 382 1042 q 476 1007 457 1042 z "},"_":{"ha":699,"x_min":-53,"x_max":747,"o":"m 0 -179 q -53 -133 -53 -179 q 0 -87 -53 -87 l 693 -87 q 747 -135 747 -87 q 693 -179 747 -179 l 0 -179 z "},"`":{"ha":338,"x_min":0,"x_max":207,"o":"m 204 982 l 110 768 q 54 735 96 735 q 0 775 0 735 q 4 790 0 782 l 97 1007 q 149 1038 111 1038 q 189 1026 171 1038 q 207 996 207 1014 q 204 982 207 989 z "},"a":{"ha":761,"x_min":-3,"x_max":649,"o":"m 318 69 q 490 169 425 69 q 549 388 549 260 q 492 596 549 511 q 318 690 428 690 q 161 594 219 690 q 110 381 110 507 q 161 167 110 254 q 318 69 219 69 m 318 796 q 452 760 388 796 q 546 669 517 724 q 544 735 546 689 q 597 801 544 801 q 649 738 649 801 l 649 29 q 599 -12 649 -12 q 547 27 549 -12 q 546 86 546 67 q 436 3 497 25 q 299 -17 386 -17 q 71 103 154 -17 q -3 369 -3 210 q 79 661 -3 539 q 318 796 169 796 z "},"b":{"ha":758,"x_min":0,"x_max":656,"o":"m 0 974 q 51 1028 0 1028 q 103 974 103 1028 l 103 664 q 332 796 190 796 q 574 667 483 796 q 656 385 656 551 q 575 108 656 221 q 332 -18 486 -18 q 103 93 185 -18 l 103 40 q 87 -1 103 14 q 50 -17 71 -17 q 0 42 0 -17 l 0 974 m 332 72 q 488 168 431 72 q 538 381 538 254 q 486 601 538 510 q 332 703 428 703 q 163 603 225 703 q 106 386 106 514 q 161 171 106 258 q 332 72 225 72 z "},"c":{"ha":607,"x_min":0,"x_max":543,"o":"m 485 639 q 430 663 472 639 q 344 688 388 688 q 171 590 236 688 q 111 379 111 503 q 167 182 111 261 q 339 93 229 93 q 426 110 375 93 q 488 128 478 128 q 539 79 539 128 q 513 26 539 49 q 354 -18 458 -18 q 88 108 186 -18 q 0 386 0 221 q 89 668 0 551 q 351 796 186 796 q 435 783 388 796 q 519 743 490 768 q 543 696 543 724 q 526 656 543 674 q 485 639 510 639 z "},"d":{"ha":767,"x_min":0,"x_max":651,"o":"m 549 667 l 549 975 q 601 1029 549 1029 q 651 975 651 1029 l 651 26 q 601 -21 651 -21 q 549 28 549 -21 l 549 93 q 322 -19 476 -19 q 79 104 168 -19 q 0 379 0 217 q 82 665 0 547 q 322 796 172 796 q 549 667 447 796 m 322 690 q 165 593 224 690 q 111 381 111 506 q 164 175 111 258 q 322 82 222 82 q 497 176 432 82 q 554 385 554 263 q 496 596 554 510 q 322 690 432 690 z "},"e":{"ha":746,"x_min":0,"x_max":657,"o":"m 336 797 q 571 703 485 797 q 657 450 657 610 q 621 338 657 338 l 118 338 q 191 156 118 239 q 358 72 264 72 q 469 103 415 72 q 547 157 496 117 q 601 188 585 188 q 638 171 622 188 q 653 135 653 154 q 643 107 653 118 q 358 -18 544 -18 q 88 110 188 -18 q 0 389 0 222 q 86 669 0 554 q 336 797 179 797 m 118 443 l 553 443 q 486 636 553 565 q 339 700 426 700 q 189 636 251 700 q 118 443 121 564 z "},"f":{"ha":413,"x_min":0,"x_max":386,"o":"m 122 665 l 57 665 q 0 715 0 665 q 57 769 0 769 l 122 769 l 122 903 q 235 1031 122 1031 l 325 1031 q 386 982 386 1031 q 325 936 386 936 q 247 931 260 936 q 224 867 224 919 l 224 769 q 313 771 246 769 q 369 718 369 771 q 310 664 369 664 l 224 665 l 224 50 q 172 -1 224 -1 q 122 50 122 -1 l 122 665 z "},"g":{"ha":771,"x_min":0,"x_max":657,"o":"m 339 703 q 174 607 235 703 q 119 394 119 521 q 175 175 119 265 q 339 74 236 74 q 503 174 442 74 q 558 390 558 263 q 504 606 558 518 q 339 703 443 703 m 554 679 l 554 754 q 604 800 554 800 q 657 751 657 800 l 657 18 q 569 -224 657 -133 q 331 -315 482 -315 q 51 -225 158 -315 q 26 -171 26 -203 q 69 -122 26 -122 q 100 -131 83 -122 q 193 -181 147 -156 q 339 -212 265 -212 q 554 97 554 -212 q 463 11 528 43 q 339 -17 406 -17 q 85 111 179 -17 q 0 392 0 226 q 85 669 0 556 q 339 796 179 796 q 463 765 403 796 q 554 679 522 733 z "},"h":{"ha":689,"x_min":0,"x_max":581,"o":"m 0 975 q 50 1029 0 1029 q 101 975 101 1029 l 101 689 q 314 794 181 794 q 497 725 421 794 q 581 531 581 650 l 581 50 q 529 -1 581 -1 q 479 50 479 -1 l 479 486 q 421 646 479 588 q 292 699 368 699 q 161 646 215 699 q 101 486 101 586 l 101 50 q 50 -1 101 -1 q 0 50 0 -1 l 0 975 z "},"i":{"ha":250,"x_min":0,"x_max":144,"o":"m 71 1031 q 124 1008 104 1031 q 144 956 144 985 q 69 889 144 889 q 19 912 38 889 q 0 964 0 935 q 71 1031 0 1031 m 21 744 q 71 796 21 796 q 124 744 124 796 l 124 51 q 72 -1 124 -1 q 21 51 21 -1 l 21 744 z "},"j":{"ha":250,"x_min":0,"x_max":144,"o":"m 71 1031 q 124 1008 104 1031 q 144 956 144 985 q 74 889 144 889 q 20 911 40 889 q 0 964 0 933 q 71 1031 0 1031 m 21 744 q 72 797 21 797 q 124 744 124 797 l 124 -271 q 71 -322 124 -322 q 21 -271 21 -322 l 21 744 z "},"k":{"ha":639,"x_min":0,"x_max":558,"o":"m 0 976 q 51 1028 0 1028 q 101 976 101 1028 l 101 506 l 432 768 q 465 781 447 781 q 503 764 486 781 q 519 725 519 747 q 490 675 519 697 l 181 438 l 525 107 q 558 43 558 75 q 510 -4 558 -4 q 444 28 476 -4 l 101 356 l 101 50 q 50 0 101 0 q 0 50 0 0 l 0 976 z "},"l":{"ha":218,"x_min":0,"x_max":103,"o":"m 0 978 q 50 1031 0 1031 q 103 978 103 1031 l 103 51 q 51 -1 103 -1 q 0 51 0 -1 l 0 978 z "},"m":{"ha":1126,"x_min":0,"x_max":1018,"o":"m 0 736 q 51 797 0 797 q 103 736 104 797 l 101 686 q 304 796 181 796 q 514 664 442 796 q 758 796 601 796 q 939 731 864 796 q 1018 550 1018 661 l 1018 53 q 967 3 1018 3 q 914 53 914 3 l 914 506 q 864 643 914 593 q 753 689 819 689 q 621 633 676 689 q 558 471 558 572 l 558 53 q 508 1 558 1 q 457 53 457 1 l 457 506 q 407 642 457 592 q 294 686 361 686 q 163 632 218 686 q 101 471 101 571 l 101 53 q 51 1 101 1 q 0 53 0 1 l 0 736 z "},"n":{"ha":690,"x_min":0,"x_max":583,"o":"m 0 749 q 50 796 0 796 q 103 746 101 796 q 103 675 104 690 q 325 796 178 796 q 503 728 429 796 q 583 528 583 654 l 583 50 q 531 -1 583 -1 q 479 50 479 -1 l 479 517 q 428 646 479 597 q 310 689 379 689 q 169 632 228 689 q 103 460 103 568 l 103 50 q 50 -1 103 -1 q 0 50 0 -1 l 0 749 z "},"o":{"ha":778,"x_min":0,"x_max":672,"o":"m 336 796 q 588 665 493 796 q 672 381 672 549 q 589 107 672 218 q 336 -17 497 -17 q 83 111 176 -17 q 0 390 0 225 q 83 669 0 556 q 336 796 176 796 m 336 703 q 169 608 229 703 q 117 400 117 525 q 172 176 117 271 q 336 74 235 74 q 503 167 443 74 q 557 372 557 249 q 499 599 557 503 q 336 703 436 703 z "},"p":{"ha":758,"x_min":0,"x_max":658,"o":"m 0 746 q 53 797 0 797 q 104 740 104 797 l 103 664 q 321 796 207 796 q 574 667 479 796 q 658 382 658 549 q 575 106 658 218 q 321 -19 482 -19 q 103 93 201 -19 l 103 -269 q 50 -321 103 -321 q 0 -269 0 -321 l 0 746 m 321 71 q 482 171 422 71 q 536 389 536 260 q 483 604 536 517 q 321 703 424 703 q 157 606 217 703 q 103 392 103 519 q 158 172 103 263 q 321 71 219 71 z "},"q":{"ha":765,"x_min":0,"x_max":653,"o":"m 335 796 q 549 664 469 796 q 550 733 549 681 q 601 799 550 799 q 653 739 653 799 l 653 -269 q 600 -321 653 -321 q 549 -269 549 -321 l 549 97 q 335 -17 474 -17 q 85 114 179 -17 q 0 399 0 232 q 82 672 0 563 q 335 796 175 796 m 335 703 q 171 607 231 703 q 117 397 117 522 q 172 175 117 267 q 335 74 233 74 q 497 172 438 74 q 551 386 551 260 q 497 604 551 514 q 335 703 436 703 z "},"r":{"ha":432,"x_min":0,"x_max":356,"o":"m 0 739 q 51 797 0 797 q 101 742 101 797 l 101 643 q 282 796 197 796 q 334 775 313 796 q 356 722 356 754 q 289 663 356 688 q 168 600 200 629 q 101 417 101 539 l 101 53 q 51 1 101 1 q 0 53 0 1 l 0 739 z "},"s":{"ha":658,"x_min":0,"x_max":568,"o":"m 85 181 q 181 115 111 144 q 315 85 250 85 q 449 208 449 85 q 339 325 449 272 q 132 419 235 372 q 21 581 21 485 q 97 746 21 689 q 271 796 164 796 q 519 714 421 796 q 542 665 542 694 q 497 611 542 611 q 465 621 482 611 q 242 692 354 692 q 135 593 135 692 q 247 497 135 549 q 456 394 424 415 q 568 222 568 319 q 482 43 568 108 q 286 -15 403 -15 q 15 94 110 -15 q 0 138 0 113 q 15 183 0 163 q 49 203 29 203 q 85 181 68 203 z "},"t":{"ha":438,"x_min":0,"x_max":344,"o":"m 119 675 l 50 675 q 0 722 0 675 q 47 768 0 769 l 119 768 l 119 978 q 171 1029 119 1029 q 222 978 222 1029 l 222 768 q 290 768 238 768 q 344 721 344 768 q 293 674 344 674 l 222 675 l 222 50 q 169 -1 222 -1 q 119 50 119 -1 l 119 675 z "},"u":{"ha":693,"x_min":0,"x_max":581,"o":"m 0 719 q 50 771 0 771 q 101 719 101 771 l 101 271 q 160 125 101 178 q 288 76 213 76 q 419 125 365 76 q 479 271 479 181 l 479 719 q 529 771 479 771 q 581 719 581 771 l 581 238 q 431 14 581 79 q 150 13 290 -47 q 0 238 0 78 l 0 719 z "},"v":{"ha":665,"x_min":0,"x_max":572,"o":"m 106 711 l 282 172 l 467 713 q 528 772 486 772 q 572 724 572 772 q 568 701 572 713 l 342 42 q 281 -1 326 -1 q 225 42 240 -1 l 4 700 q 0 724 0 713 q 43 769 0 769 q 106 711 88 769 z "},"w":{"ha":1165,"x_min":0,"x_max":1072,"o":"m 108 728 l 281 172 l 476 721 q 533 769 493 769 q 589 721 574 769 l 774 172 l 963 729 q 1021 772 976 772 q 1072 719 1072 772 q 1064 681 1072 701 l 832 53 q 772 1 813 1 q 713 57 731 1 l 533 618 l 353 53 q 286 0 335 0 q 217 57 236 0 l 7 679 q 0 715 0 699 q 51 771 0 771 q 108 728 94 771 z "},"x":{"ha":724,"x_min":0,"x_max":631,"o":"m 251 415 l 54 679 q 39 719 39 700 q 55 756 39 742 q 92 769 71 769 q 146 739 125 769 l 315 496 l 488 740 q 540 771 508 771 q 578 757 563 771 q 594 722 594 743 q 578 681 594 701 l 374 424 l 604 111 q 631 46 631 75 q 586 -1 631 -1 q 517 43 549 -1 l 308 332 l 100 42 q 40 3 74 3 q 0 46 0 3 q 24 106 0 74 l 251 415 z "},"y":{"ha":683,"x_min":0,"x_max":590,"o":"m 240 38 l 7 685 q 0 718 0 703 q 49 769 0 769 q 108 721 93 769 l 286 172 l 482 728 q 540 771 497 771 q 590 721 590 771 q 583 690 590 707 l 240 -269 q 181 -317 224 -317 q 133 -267 133 -317 q 139 -236 133 -253 l 240 38 z "},"z":{"ha":660,"x_min":0,"x_max":578,"o":"m 69 769 l 493 769 q 556 726 556 769 q 526 654 556 696 l 138 101 l 526 101 q 578 51 578 101 q 526 0 578 0 l 81 0 q 0 50 0 0 q 25 113 0 76 l 400 665 l 69 665 q 18 718 18 665 q 69 769 18 769 z "},"{":{"ha":501,"x_min":0,"x_max":371,"o":"m 0 488 q 23 521 0 511 q 69 539 46 531 q 144 756 144 569 q 139 866 144 804 q 133 928 133 928 q 194 1031 133 1010 q 326 1042 224 1042 q 358 1028 344 1042 q 371 999 371 1014 q 311 963 371 963 q 260 951 275 963 q 236 883 236 935 q 238 815 236 861 q 239 746 239 769 q 122 483 239 549 q 239 222 239 449 q 238 158 239 197 q 236 106 236 118 q 267 14 236 35 q 326 2 281 4 q 371 -36 371 0 q 326 -76 371 -76 q 188 -61 219 -76 q 133 60 133 -35 q 137 132 133 75 q 140 225 140 189 q 69 442 140 408 q 23 453 46 447 q 0 488 0 460 z "},"|":{"ha":232,"x_min":0,"x_max":101,"o":"m 0 1075 q 51 1135 0 1135 q 101 1075 101 1135 l 101 26 q 50 -26 101 -26 q 0 26 0 -26 l 0 1075 z "},"}":{"ha":501,"x_min":0,"x_max":371,"o":"m 371 488 q 349 521 371 511 q 303 539 326 531 q 226 756 226 569 q 232 866 226 804 q 238 928 238 928 q 176 1031 238 1010 q 46 1042 149 1042 q 14 1028 28 1042 q 0 999 0 1014 q 60 963 0 963 q 111 951 96 963 q 136 883 136 935 q 135 815 136 861 q 133 746 133 769 q 249 483 133 549 q 133 222 133 449 q 135 158 133 197 q 136 106 136 118 q 106 14 136 35 q 45 2 90 4 q 0 -36 0 0 q 46 -76 0 -76 q 185 -61 153 -76 q 238 60 238 -35 q 235 132 238 75 q 232 225 232 189 q 303 442 232 408 q 349 453 326 447 q 371 488 371 460 z "},"~":{"ha":810,"x_min":0,"x_max":679,"o":"m 46 258 q 0 315 0 258 q 63 431 0 382 q 189 478 121 478 q 358 420 261 478 q 486 363 454 363 q 563 419 531 363 q 631 476 594 476 q 679 415 679 476 q 608 300 679 346 q 475 258 546 258 q 324 313 411 258 q 197 368 238 368 q 113 313 154 368 q 46 258 72 258 z "},"‚":{"ha":336,"x_min":0,"x_max":206,"o":"m 201 89 l 97 -157 q 54 -185 85 -185 q 17 -172 33 -185 q 0 -139 0 -158 q 4 -122 0 -131 l 97 106 q 153 142 113 142 q 190 131 174 142 q 206 103 206 119 q 201 89 206 96 z "},"„":{"ha":561,"x_min":0,"x_max":431,"o":"m 201 89 l 97 -157 q 56 -176 89 -176 q 0 -137 0 -176 q 3 -122 0 -131 l 97 106 q 153 135 110 135 q 204 101 204 135 q 201 89 204 96 m 428 89 l 322 -157 q 282 -176 314 -176 q 226 -137 226 -176 q 229 -122 226 -131 l 322 106 q 378 135 335 135 q 431 101 431 135 q 428 89 431 96 z "},"…":{"ha":728,"x_min":0,"x_max":597,"o":"m 72 140 q 126 117 106 140 q 146 65 146 94 q 76 0 146 0 q 19 24 40 0 q 0 72 0 43 q 19 120 0 100 q 72 140 38 140 m 297 140 q 351 117 332 140 q 371 65 371 94 q 303 0 371 0 q 246 24 267 0 q 226 72 226 43 q 245 120 226 100 q 297 140 264 140 m 524 140 q 577 117 557 140 q 597 65 597 94 q 529 0 597 0 q 471 24 493 0 q 451 72 451 43 q 471 120 451 100 q 524 140 490 140 z "},"†":{"ha":746,"x_min":0,"x_max":615,"o":"m 564 669 l 357 669 l 357 68 q 308 -1 357 -1 q 272 17 288 -1 q 256 68 256 36 l 256 669 l 51 669 q 0 722 0 669 q 51 771 0 771 l 256 771 l 256 994 q 272 1045 256 1026 q 308 1064 288 1064 q 357 994 357 1064 l 357 771 l 564 771 q 615 718 615 771 q 564 669 615 669 z "},"‡":{"ha":746,"x_min":0,"x_max":615,"o":"m 564 368 q 615 315 615 368 q 564 267 615 267 l 357 267 l 357 49 q 308 -21 357 -21 q 272 -2 288 -21 q 256 49 256 17 l 256 267 l 51 267 q 0 319 0 267 q 51 368 0 368 l 256 368 l 256 750 l 51 750 q 0 803 0 750 q 51 853 0 853 l 256 853 l 256 961 q 272 1011 256 993 q 308 1029 288 1029 q 357 961 357 1029 l 357 853 l 564 853 q 615 800 615 853 q 564 750 615 750 l 357 750 l 357 368 l 564 368 z "},"‰":{"ha":1654,"x_min":0,"x_max":1524,"o":"m 749 494 q 918 413 854 494 q 975 233 975 339 q 919 60 975 129 q 749 -19 857 -19 q 574 63 639 -19 q 514 243 514 138 q 571 417 514 346 q 749 494 636 494 m 749 60 q 853 114 815 60 q 888 232 888 161 q 851 357 888 306 q 749 415 813 415 q 643 360 682 415 q 608 239 608 310 q 643 115 608 165 q 749 60 682 60 m 232 539 q 60 622 125 539 q 0 804 0 697 q 57 975 0 906 q 232 1053 121 1053 q 404 972 340 1053 q 463 794 463 900 q 406 619 463 690 q 232 539 340 539 m 232 618 q 339 674 299 618 q 374 794 374 722 q 338 917 374 867 q 232 974 299 974 q 131 922 167 974 q 94 799 94 869 q 129 675 94 726 q 232 618 168 618 m 254 49 l 632 1018 q 685 1060 649 1060 q 726 1014 726 1060 q 719 979 726 999 q 521 457 669 838 q 332 0 361 54 q 288 -31 315 -31 q 247 15 247 -31 q 254 49 247 31 m 1297 494 q 1467 413 1403 494 q 1524 233 1524 339 q 1468 60 1524 129 q 1297 -19 1406 -19 q 1122 63 1188 -19 q 1063 243 1063 138 q 1121 417 1063 346 q 1297 494 1185 494 m 1297 60 q 1401 114 1364 60 q 1436 232 1436 161 q 1400 357 1436 306 q 1297 415 1361 415 q 1192 360 1231 415 q 1157 239 1157 310 q 1193 115 1157 165 q 1297 60 1232 60 z "},"‹":{"ha":903,"x_min":0,"x_max":772,"o":"m 725 651 l 153 376 l 714 104 q 764 40 764 79 q 717 -1 764 -1 q 665 13 694 -1 l 49 319 q 0 385 0 344 q 49 447 0 425 l 681 742 q 747 749 721 760 q 772 711 772 738 q 725 651 772 674 z "},"‘":{"ha":336,"x_min":0,"x_max":206,"o":"m 7 963 l 97 757 q 147 728 110 728 q 188 740 169 728 q 206 769 206 751 q 203 783 206 776 l 119 996 q 57 1049 99 1049 q 17 1032 33 1049 q 0 990 0 1015 q 7 963 0 976 z "},"’":{"ha":336,"x_min":0,"x_max":206,"o":"m 200 963 l 110 757 q 58 728 96 728 q 18 740 36 728 q 0 769 0 751 q 3 783 0 776 l 86 996 q 149 1049 107 1049 q 189 1032 172 1049 q 206 990 206 1015 q 200 963 206 976 z "},"“":{"ha":563,"x_min":0,"x_max":432,"o":"m 7 963 l 97 757 q 147 728 110 728 q 188 740 169 728 q 206 769 206 751 q 203 783 206 776 l 119 996 q 57 1049 99 1049 q 17 1032 33 1049 q 0 990 0 1015 q 7 963 0 976 m 232 963 l 322 757 q 374 728 336 728 q 414 740 396 728 q 432 769 432 751 q 429 783 432 776 l 346 996 q 283 1049 325 1049 q 243 1032 260 1049 q 226 990 226 1015 q 232 963 226 976 z "},"”":{"ha":563,"x_min":0,"x_max":432,"o":"m 425 963 l 335 757 q 285 728 322 728 q 244 740 263 728 q 226 769 226 751 q 229 783 226 776 l 313 996 q 375 1049 333 1049 q 415 1032 397 1049 q 432 990 432 1015 q 425 963 432 976 m 200 963 l 110 757 q 58 728 96 728 q 18 740 36 728 q 0 769 0 751 q 3 783 0 776 l 86 996 q 149 1049 107 1049 q 189 1032 172 1049 q 206 990 206 1015 q 200 963 206 976 z "},"•":{"ha":767,"x_min":0,"x_max":636,"o":"m 318 800 q 556 700 468 800 q 636 479 636 610 q 556 258 636 349 q 318 157 468 157 q 79 258 168 157 q 0 479 0 349 q 79 700 0 610 q 318 800 168 800 z "},"–":{"ha":953,"x_min":0,"x_max":822,"o":"m 60 438 l 763 438 q 822 383 822 438 q 763 332 822 332 l 60 332 q 0 383 0 332 q 16 421 0 404 q 60 438 32 438 z "},"—":{"ha":1228,"x_min":0,"x_max":1097,"o":"m 60 438 l 1038 438 q 1097 383 1097 438 q 1038 332 1097 332 l 60 332 q 0 383 0 332 q 16 421 0 404 q 60 438 32 438 z "},"™":{"ha":939,"x_min":0,"x_max":813,"o":"m 128 997 l 25 997 q 0 1024 0 997 q 25 1047 0 1047 l 282 1047 q 308 1022 308 1047 q 282 997 308 997 l 179 997 l 179 557 q 154 522 179 522 q 128 557 128 522 l 128 997 m 414 1019 l 528 619 l 647 1019 q 696 1057 660 1057 q 739 1014 732 1057 l 808 560 q 785 529 813 529 q 756 557 760 529 l 693 986 l 556 557 q 528 526 546 526 q 499 557 508 526 l 367 986 l 304 557 q 275 528 300 528 q 253 560 249 528 q 322 1014 261 617 q 365 1057 328 1057 q 414 1019 403 1057 z "},"›":{"ha":903,"x_min":0,"x_max":772,"o":"m 607 371 l 46 657 q 0 715 0 681 q 49 758 0 758 q 82 751 65 758 l 711 443 q 772 378 772 413 q 700 304 772 339 l 82 8 q 51 1 67 1 q 1 50 1 1 q 46 110 1 89 l 607 371 z "}," ":{"ha":45510,"x_min":0,"x_max":0,"o":""},"£":{"ha":897,"x_min":0,"x_max":767,"o":"m 210 483 l 51 483 q 0 532 0 483 q 51 585 0 585 l 176 585 q 101 799 101 692 q 177 973 101 904 q 394 1042 253 1042 q 735 814 644 1042 q 740 788 740 800 q 725 747 740 764 q 690 731 710 731 q 636 774 656 731 q 571 881 597 854 q 394 939 511 939 q 224 790 224 939 q 289 585 224 693 l 475 585 q 525 533 525 585 q 475 483 525 483 l 315 483 q 338 363 338 419 q 199 106 338 229 l 715 106 q 767 53 767 106 q 715 3 767 3 l 108 3 q 51 51 51 3 q 97 128 51 79 q 182 228 163 197 q 226 378 226 297 q 210 483 226 428 z "},"¤":{"ha":1071,"x_min":0,"x_max":940,"o":"m 468 1010 q 335 936 383 1010 q 292 774 292 871 q 338 599 292 671 q 468 518 386 518 q 601 590 553 518 q 644 751 644 654 q 599 928 644 854 q 468 1010 549 1010 m 921 1100 l 718 897 q 735 808 735 883 q 722 649 735 740 l 921 451 q 940 407 940 432 q 926 371 940 386 q 890 356 911 356 q 846 376 868 356 l 675 549 q 469 444 600 444 q 265 547 340 444 l 93 376 q 49 356 72 356 q 15 371 29 356 q 0 407 0 386 q 19 451 0 432 l 217 647 q 199 765 199 704 q 221 899 199 835 l 19 1100 q 0 1143 0 1119 q 15 1179 0 1164 q 49 1194 29 1194 q 93 1174 72 1194 l 274 994 q 465 1085 347 1085 q 663 990 588 1085 l 846 1174 q 890 1194 868 1194 q 926 1179 911 1194 q 940 1143 940 1164 q 921 1100 940 1119 z "},"¥":{"ha":814,"x_min":0,"x_max":683,"o":"m 101 426 l 282 426 l 282 483 l 235 565 l 69 565 q 8 615 8 565 q 25 653 8 638 q 69 669 42 669 l 175 669 l 10 963 q 0 999 0 981 q 14 1033 0 1019 q 46 1047 28 1047 q 89 1018 72 1047 l 340 596 l 592 1018 q 639 1047 608 1047 q 683 1004 683 1047 q 671 963 683 985 l 497 669 l 610 669 q 669 617 669 669 q 610 565 669 565 l 435 565 l 386 483 l 386 426 l 567 426 q 628 374 628 426 q 567 322 628 322 l 386 322 l 386 49 q 335 -11 386 -11 q 282 49 282 -11 l 282 322 l 101 322 q 42 372 42 322 q 58 410 42 394 q 101 426 74 426 z "},"§":{"ha":849,"x_min":0,"x_max":718,"o":"m 182 640 q 76 814 79 704 q 167 986 72 917 q 374 1051 254 1051 q 561 993 483 1051 q 669 803 650 926 q 658 766 674 781 q 621 751 643 751 q 560 803 574 751 q 485 907 542 871 q 368 939 435 939 q 243 905 297 939 q 189 819 189 871 q 326 682 189 751 q 581 550 572 556 q 718 338 718 458 q 560 82 718 183 q 649 -93 649 3 q 554 -261 649 -199 q 347 -317 469 -317 q 138 -260 222 -317 q 42 -90 42 -197 q 90 -24 42 -24 q 150 -99 138 -24 q 221 -183 158 -151 q 353 -214 278 -214 q 478 -181 426 -214 q 531 -89 531 -149 q 393 46 531 -24 q 138 179 163 163 q 0 401 0 274 q 51 549 0 483 q 182 640 103 615 m 286 585 q 159 517 210 571 q 108 400 108 463 q 193 275 108 319 l 469 128 q 566 220 529 165 q 603 331 603 275 q 504 471 603 419 l 286 585 z "},"¨":{"ha":528,"x_min":0,"x_max":397,"o":"m 68 996 q 128 974 106 996 q 146 924 146 953 q 126 872 146 894 q 74 850 107 850 q 18 874 39 850 q 0 924 0 893 q 18 974 0 953 q 68 996 36 996 m 318 996 q 376 974 356 996 q 397 924 397 953 q 377 872 397 894 q 322 850 357 850 q 269 873 289 850 q 250 925 250 896 q 268 975 250 954 q 318 996 286 996 z "},"©":{"ha":1183,"x_min":0,"x_max":1053,"o":"m 525 1029 q 919 864 772 1029 q 1053 500 1053 715 q 921 143 1053 289 q 525 -19 775 -19 q 132 144 278 -19 q 0 506 0 293 q 131 867 0 719 q 525 1029 276 1029 m 525 71 q 840 207 724 71 q 946 504 946 328 q 840 803 946 681 q 525 939 724 939 q 211 804 326 939 q 107 508 107 683 q 211 208 107 331 q 525 71 328 71 m 525 172 q 292 278 381 172 q 211 508 211 374 q 289 726 211 639 q 525 825 375 825 q 788 640 713 825 q 790 629 790 635 q 740 592 790 592 q 688 626 703 592 q 623 705 668 675 q 525 735 578 735 q 369 664 426 735 q 319 507 319 601 q 372 340 319 410 q 525 263 431 263 q 657 304 604 263 q 721 381 690 329 q 758 422 747 422 q 781 402 771 422 q 792 363 792 382 q 788 344 792 351 q 675 222 749 272 q 525 172 601 172 z "},"ª":{"ha":454,"x_min":0,"x_max":324,"o":"m 160 703 q 244 751 213 703 q 274 860 274 796 q 246 963 274 921 q 160 1010 214 1010 q 83 965 110 1010 q 56 857 56 919 q 83 749 56 794 q 160 703 110 703 m 272 993 q 272 1038 272 1044 q 297 1067 275 1067 q 324 1040 324 1067 l 324 681 q 297 654 324 654 q 272 681 275 654 q 272 708 272 679 q 149 657 232 657 q 38 718 78 657 q 0 851 0 771 q 40 996 0 936 q 160 1063 85 1063 q 272 993 235 1063 z "},"«":{"ha":592,"x_min":0,"x_max":461,"o":"m 451 596 l 314 381 q 458 136 336 347 q 461 126 461 132 q 442 101 461 113 q 404 89 424 89 q 371 106 381 89 l 232 332 q 217 379 217 358 q 232 426 217 400 l 371 653 q 406 668 381 668 q 461 625 461 668 q 451 596 461 611 m 232 596 l 97 381 q 240 136 117 349 q 243 126 243 131 q 224 101 243 113 q 186 89 206 89 q 153 106 163 89 l 18 332 q 0 379 0 363 q 18 426 0 397 l 153 653 q 185 669 164 669 q 222 654 204 669 q 239 619 239 639 q 232 596 239 607 z "},"¬":{"ha":892,"x_min":0,"x_max":761,"o":"m 656 167 l 656 332 l 60 332 q 0 383 0 332 q 16 421 0 404 q 60 438 32 438 l 703 438 q 761 372 761 438 l 761 167 q 711 107 761 107 q 672 123 689 107 q 656 167 656 139 z "},"®":{"ha":1182,"x_min":0,"x_max":1051,"o":"m 524 1042 q 918 875 771 1042 q 1051 513 1051 726 q 919 154 1051 300 q 524 -8 774 -8 q 132 157 278 -8 q 0 519 0 306 q 131 878 0 732 q 524 1042 276 1042 m 376 814 l 581 814 q 724 760 668 814 q 779 636 779 707 q 625 471 779 513 q 707 347 667 410 q 772 228 772 246 q 725 186 772 186 q 661 229 685 186 l 524 471 l 411 471 l 411 229 q 364 186 411 186 q 321 229 321 186 l 321 757 q 339 807 321 797 q 376 814 351 814 m 411 735 l 411 550 l 569 550 q 649 576 621 550 q 678 640 678 603 q 649 706 678 678 q 569 735 619 735 l 411 735 m 524 82 q 839 218 722 82 q 944 515 944 339 q 839 815 944 692 q 524 951 722 951 q 210 815 325 951 q 104 518 104 694 q 210 218 104 342 q 524 82 326 82 z "},"¯":{"ha":931,"x_min":0,"x_max":800,"o":"m 53 1113 q 0 1158 0 1113 q 53 1204 0 1204 l 746 1204 q 800 1157 800 1204 q 746 1113 800 1113 l 53 1113 z "},"°":{"ha":403,"x_min":0,"x_max":272,"o":"m 138 1113 q 239 1069 203 1113 q 272 976 272 1032 q 239 881 272 921 q 138 836 200 836 q 36 882 75 836 q 0 982 0 924 q 35 1074 0 1036 q 138 1113 71 1113 m 142 906 q 188 926 171 906 q 204 972 204 946 q 187 1021 204 1000 q 138 1042 169 1042 q 88 1022 106 1042 q 69 974 69 1001 q 88 926 69 946 q 142 906 107 906 z "},"±":{"ha":826,"x_min":40,"x_max":785,"o":"m 350 558 l 350 818 q 403 872 350 872 q 444 858 426 872 q 463 818 463 843 l 463 558 l 715 558 q 766 540 747 558 q 785 499 785 522 q 715 443 785 443 l 463 443 l 463 169 q 445 131 463 146 q 404 117 428 117 q 350 169 350 117 l 350 443 l 97 443 q 40 503 40 443 q 97 558 40 558 l 350 558 m 104 106 l 725 106 q 785 53 785 106 q 725 1 785 1 l 104 1 q 43 51 43 1 q 60 90 43 74 q 104 106 76 106 z "},"¶":{"ha":757,"x_min":0,"x_max":626,"o":"m 558 956 l 558 6 l 465 6 l 465 956 l 361 956 l 361 6 l 269 6 l 269 553 l 267 553 q 88 614 168 553 q 0 778 0 681 q 113 979 0 901 q 340 1047 213 1047 l 626 1047 l 626 956 l 558 956 m 49 858 l 81 858 l 126 728 l 174 858 l 204 858 l 204 704 l 185 704 l 185 833 l 136 704 l 117 704 l 68 838 l 68 704 l 49 704 l 49 858 m 336 821 l 336 697 q 282 657 336 657 q 236 663 260 657 l 235 679 q 281 672 265 672 q 315 700 315 672 l 315 731 q 272 707 304 707 q 221 764 221 707 q 290 826 221 826 q 336 821 311 826 m 317 808 q 292 810 303 810 q 240 763 240 810 q 276 722 240 722 q 317 763 317 722 l 317 808 z "},"»":{"ha":594,"x_min":0,"x_max":464,"o":"m 367 381 l 228 596 q 215 633 215 617 q 264 674 215 674 q 307 653 294 674 l 447 426 q 464 379 464 400 q 447 332 464 358 l 307 106 q 267 90 299 90 q 215 119 215 90 q 221 133 215 126 l 367 381 m 149 381 q 4 624 131 411 q 0 636 0 629 q 17 662 0 650 q 54 674 33 674 q 93 653 81 674 l 228 426 q 246 379 246 397 q 228 332 246 363 l 93 106 q 56 90 85 90 q 0 121 0 90 q 4 133 0 128 l 149 381 z "},"π":{"ha":703,"x_min":0,"x_max":590,"o":"m 0 715 q 13 753 0 736 q 46 769 25 769 l 539 769 q 589 714 589 769 l 590 50 q 539 -1 590 -1 q 489 50 489 -1 l 489 678 l 103 678 l 103 50 q 50 -1 103 -1 q 0 50 0 -1 l 0 715 z "},"\"":{"ha":429,"x_min":0,"x_max":299,"o":"m 0 1008 q 51 1068 0 1068 q 101 1008 101 1068 l 101 804 q 50 750 101 750 q 0 804 0 750 l 0 1008 m 193 1008 q 246 1068 193 1068 q 299 1008 299 1068 l 299 804 q 244 750 299 750 q 193 804 193 750 l 193 1008 z "},"!":{"ha":275,"x_min":0,"x_max":144,"o":"m 71 140 q 124 118 104 140 q 144 65 144 96 q 75 0 144 0 q 19 24 40 0 q 0 72 0 43 q 71 140 0 140 m 118 251 q 67 200 118 200 q 17 251 17 200 l 17 1007 q 68 1067 17 1067 q 118 1007 118 1067 l 118 251 z "},"΅":{"ha":621,"x_min":0,"x_max":490,"o":"m 318 996 q 376 974 356 996 q 397 924 397 953 q 378 872 397 894 q 324 850 358 850 q 269 873 289 850 q 250 925 250 896 q 268 975 250 954 q 318 996 286 996 m 210 1035 q 200 1033 204 1033 q 165 1081 165 1033 q 197 1128 165 1115 l 438 1222 q 449 1225 443 1225 q 478 1209 465 1225 q 490 1172 490 1193 q 447 1117 490 1132 l 210 1035 m 68 996 q 128 974 107 996 q 149 924 149 953 q 128 872 149 894 q 74 850 108 850 q 18 874 39 850 q 0 924 0 893 q 18 974 0 953 q 68 996 36 996 z "},"Ά":{"ha":942,"x_min":0,"x_max":860,"o":"m 125 1007 q 165 1031 136 1031 q 203 1017 186 1031 q 221 983 221 1004 q 215 963 221 974 l 88 714 q 47 688 74 688 q 14 701 28 688 q 0 733 0 714 q 7 761 0 747 l 125 1007 m 240 321 l 653 321 l 449 886 l 240 321 m 697 207 l 207 207 l 156 53 q 93 -1 136 -1 q 49 47 49 -1 q 54 76 49 60 l 368 965 q 449 1028 390 1028 q 528 965 504 1028 l 854 76 q 860 46 860 60 q 813 -1 860 -1 q 763 33 775 -1 l 697 207 z "},"¦":{"ha":232,"x_min":0,"x_max":101,"o":"m 0 1085 q 17 1131 0 1114 q 57 1149 35 1149 q 101 1096 101 1149 l 101 667 q 50 615 101 615 q 0 667 0 615 l 0 1085 m 0 500 q 17 547 0 529 q 57 564 35 564 q 101 513 101 564 l 101 50 q 50 -1 101 -1 q 0 50 0 -1 l 0 500 z "},"­":{"ha":45510,"x_min":0,"x_max":0,"o":""},"²":{"ha":435,"x_min":0,"x_max":304,"o":"m 0 972 q 44 1092 0 1050 q 144 1129 85 1129 q 249 1093 204 1129 q 294 1000 294 1057 q 246 878 294 942 l 81 661 l 268 661 q 304 635 304 661 q 268 610 304 610 l 46 610 q 4 636 4 610 q 17 661 4 649 l 206 917 q 235 994 235 957 q 208 1056 235 1032 q 147 1081 182 1081 q 57 968 60 1081 q 29 929 56 929 q 0 972 0 929 z "},"³":{"ha":436,"x_min":0,"x_max":306,"o":"m 160 1126 q 244 1085 211 1126 q 278 988 278 1043 q 226 876 278 919 q 306 757 306 842 q 261 647 306 696 q 147 597 217 597 q 4 688 46 597 q 0 706 0 696 q 26 738 0 738 q 49 722 39 738 q 81 676 71 685 q 149 650 107 650 q 221 681 194 650 q 244 747 244 707 q 220 816 244 786 q 153 847 196 846 q 121 874 121 850 q 152 899 121 899 q 202 926 183 899 q 221 989 221 954 q 142 1075 221 1075 q 78 996 82 1075 q 50 967 76 967 q 21 1001 21 967 q 60 1093 21 1060 q 160 1126 100 1126 z "},"΄":{"ha":456,"x_min":0,"x_max":325,"o":"m 272 1119 q 285 1121 279 1121 q 313 1106 301 1121 q 325 1069 325 1090 q 282 1015 325 1031 l 44 932 q 13 938 25 924 q 0 974 0 951 q 32 1026 0 1014 l 272 1119 z "},"Έ":{"ha":869,"x_min":0,"x_max":806,"o":"m 325 965 q 381 1028 325 1028 l 735 1028 q 786 976 786 1028 q 735 926 786 926 l 426 926 l 426 585 l 724 585 q 775 532 775 585 q 724 483 775 483 l 426 483 l 426 101 l 746 101 q 806 50 806 101 q 746 0 806 0 l 381 0 q 335 13 344 0 q 325 63 325 25 l 325 965 m 125 1007 q 165 1031 136 1031 q 203 1017 186 1031 q 221 983 221 1004 q 215 963 221 974 l 88 714 q 47 688 74 688 q 14 701 28 688 q 0 733 0 714 q 7 761 0 747 l 125 1007 z "},"Ή":{"ha":1217,"x_min":0,"x_max":1103,"o":"m 325 979 q 375 1031 325 1031 q 426 979 426 1031 l 426 574 l 1000 574 l 1000 979 q 1050 1031 1000 1031 q 1103 979 1103 1031 l 1103 50 q 1050 -1 1103 -1 q 1000 50 1000 -1 l 1000 471 l 426 471 l 426 50 q 376 -1 426 -1 q 325 50 325 -1 l 325 979 m 125 1007 q 165 1031 136 1031 q 203 1017 186 1031 q 221 983 221 1004 q 215 963 221 974 l 88 714 q 47 688 74 688 q 14 701 28 688 q 0 733 0 714 q 7 761 0 747 l 125 1007 z "},"Ί":{"ha":540,"x_min":0,"x_max":426,"o":"m 325 979 q 375 1031 325 1031 q 426 979 426 1031 l 426 51 q 375 0 426 0 q 325 51 325 0 l 325 979 m 125 1007 q 165 1031 136 1031 q 203 1017 186 1031 q 221 983 221 1004 q 215 963 221 974 l 88 714 q 47 688 74 688 q 14 701 28 688 q 0 733 0 714 q 7 761 0 747 l 125 1007 z "},"Ό":{"ha":1208,"x_min":0,"x_max":1103,"o":"m 653 1063 q 990 893 865 1063 q 1103 521 1103 740 q 990 151 1103 303 q 653 -17 865 -17 q 321 154 444 -17 q 210 526 210 307 q 321 896 210 744 q 653 1063 443 1063 m 653 961 q 407 826 497 961 q 326 531 326 706 q 408 225 326 351 q 653 86 500 86 q 904 221 811 86 q 986 518 986 342 q 903 822 986 697 q 653 961 810 961 m 125 1007 q 165 1031 136 1031 q 203 1017 186 1031 q 221 983 221 1004 q 215 963 221 974 l 88 714 q 47 688 74 688 q 14 701 28 688 q 0 733 0 714 q 7 761 0 747 l 125 1007 z "},"½":{"ha":728,"x_min":0,"x_max":597,"o":"m 94 782 l 31 782 q 0 808 0 782 q 25 832 0 832 l 111 832 q 142 819 136 832 q 144 785 144 814 l 144 331 q 118 306 144 306 q 94 331 94 306 l 94 782 m 372 722 q 182 236 286 503 q 154 219 176 219 q 132 240 132 219 q 138 258 132 249 l 328 732 q 354 756 338 756 q 371 745 365 756 q 372 722 376 735 m 293 361 q 338 482 293 439 q 438 519 378 519 q 542 483 497 519 q 588 390 588 447 q 538 268 588 332 l 372 51 l 561 51 q 597 25 597 51 q 561 0 597 0 l 338 0 q 297 26 297 0 q 310 51 297 39 l 499 307 q 528 385 528 347 q 501 447 528 422 q 439 471 475 471 q 349 358 353 471 q 321 319 349 319 q 293 361 293 319 z "},"Ύ":{"ha":1074,"x_min":0,"x_max":999,"o":"m 606 483 l 343 946 q 333 982 333 964 q 378 1031 333 1031 q 422 1001 406 1031 l 664 596 l 903 999 q 953 1031 922 1031 q 999 986 999 1031 q 990 957 999 971 l 711 483 l 711 60 q 660 0 711 0 q 606 60 606 0 l 606 483 m 125 1007 q 165 1031 136 1031 q 203 1017 186 1031 q 221 983 221 1004 q 215 963 221 974 l 88 714 q 47 688 74 688 q 14 701 28 688 q 0 733 0 714 q 7 761 0 747 l 125 1007 z "},"Ώ":{"ha":1204,"x_min":0,"x_max":1108,"o":"m 668 1064 q 1000 924 881 1064 q 1108 613 1108 799 q 1036 339 1108 463 q 828 157 960 207 l 817 96 l 1017 96 q 1064 47 1064 96 q 1017 0 1064 0 l 717 0 l 743 231 q 971 453 904 263 q 961 796 1036 635 q 668 974 878 974 q 418 861 508 974 q 338 611 338 761 q 404 369 338 476 q 593 231 475 256 l 614 0 l 319 0 q 271 47 271 0 q 319 96 271 96 l 515 96 l 510 157 q 299 338 376 206 q 226 613 226 461 q 333 924 226 799 q 668 1064 454 1064 m 125 1007 q 165 1031 136 1031 q 203 1017 186 1031 q 221 983 221 1004 q 215 963 221 974 l 88 714 q 47 688 74 688 q 14 701 28 688 q 0 733 0 714 q 7 761 0 747 l 125 1007 z "},"ΐ":{"ha":217,"x_min":-185,"x_max":296,"o":"m 208 964 q 266 942 246 964 q 286 892 286 921 q 268 842 286 861 q 214 818 247 818 q 160 840 179 818 q 140 893 140 863 q 158 943 140 922 q 208 964 175 964 m -117 964 q -57 942 -78 964 q -36 892 -36 921 q -56 842 -36 861 q -110 818 -76 818 q -167 842 -146 818 q -185 892 -185 861 q -167 942 -185 921 q -117 964 -149 964 m -6 1063 q -31 1022 -31 1051 q 14 974 -31 974 q 36 978 25 974 l 263 1071 q 296 1118 296 1085 q 247 1168 296 1168 q 218 1163 233 1168 l -6 1063 m 104 50 q 51 -1 104 -1 q 1 50 1 -1 l 1 718 q 51 769 1 769 q 104 718 104 769 l 104 50 z "},"Α":{"ha":893,"x_min":0,"x_max":811,"o":"m 193 321 l 604 321 l 401 886 l 193 321 m 650 207 l 158 207 l 107 53 q 44 -1 89 -1 q 0 47 0 -1 q 6 76 0 60 l 319 965 q 400 1028 343 1028 q 481 965 457 1028 l 806 76 q 811 46 811 60 q 764 -1 811 -1 q 714 33 726 -1 l 650 207 z "},"Β":{"ha":683,"x_min":0,"x_max":646,"o":"m 0 961 q 57 1028 0 1028 l 228 1028 q 488 951 397 1028 q 565 783 565 885 q 522 645 565 708 q 411 561 479 582 q 588 461 524 542 q 646 289 646 388 q 569 90 646 172 q 344 0 485 0 l 81 0 q 19 11 35 0 q 0 68 0 24 l 0 961 m 103 101 l 310 101 q 475 158 415 101 q 531 288 531 211 q 463 436 531 374 q 261 506 388 506 l 103 506 l 103 101 m 228 596 q 401 647 339 596 q 457 763 457 693 q 406 875 457 828 q 261 926 350 926 l 103 926 l 103 596 l 228 596 z "},"Γ":{"ha":518,"x_min":0,"x_max":465,"o":"m 0 963 q 57 1029 0 1029 l 411 1029 q 451 1013 436 1029 q 465 976 465 997 q 411 928 465 928 l 103 928 l 103 51 q 50 0 103 0 q 0 51 0 0 l 0 963 z "},"Δ":{"ha":924,"x_min":0,"x_max":846,"o":"m 133 113 l 710 113 l 417 889 l 133 113 m 64 0 q 0 35 0 0 q 6 60 0 44 l 338 968 q 417 1032 361 1032 q 496 968 472 1032 l 840 60 q 846 33 846 44 q 763 0 846 0 l 64 0 z "},"Ε":{"ha":544,"x_min":0,"x_max":481,"o":"m 0 965 q 57 1028 0 1028 l 410 1028 q 461 976 461 1028 q 410 926 461 926 l 101 926 l 101 585 l 399 585 q 450 532 450 585 q 399 483 450 483 l 101 483 l 101 101 l 421 101 q 481 50 481 101 q 421 0 481 0 l 57 0 q 10 13 19 0 q 0 63 0 25 l 0 965 z "},"Ζ":{"ha":786,"x_min":0,"x_max":718,"o":"m 551 928 l 72 928 q 19 978 19 928 q 72 1029 19 1029 l 631 1029 q 701 983 701 1029 q 675 917 701 956 l 139 101 l 664 101 q 718 53 718 101 q 664 0 718 0 l 49 0 q 0 58 0 0 q 15 113 0 90 l 551 928 z "},"Η":{"ha":893,"x_min":0,"x_max":778,"o":"m 0 979 q 50 1031 0 1031 q 101 979 101 1031 l 101 574 l 675 574 l 675 979 q 725 1031 675 1031 q 778 979 778 1031 l 778 50 q 725 -1 778 -1 q 675 50 675 -1 l 675 471 l 101 471 l 101 50 q 51 -1 101 -1 q 0 50 0 -1 l 0 979 z "},"Θ":{"ha":994,"x_min":0,"x_max":890,"o":"m 631 476 l 246 476 q 194 525 194 476 q 246 574 194 574 l 631 574 q 682 524 682 574 q 631 476 682 476 m 439 961 q 194 826 285 961 q 114 531 114 707 q 196 226 114 351 q 439 88 288 88 q 690 222 599 88 q 774 519 774 343 q 689 822 774 699 q 439 961 596 961 m 439 1063 q 776 893 651 1063 q 890 522 890 742 q 778 153 890 304 q 439 -15 653 -15 q 111 156 233 -15 q 0 529 0 308 q 110 896 0 746 q 439 1063 231 1063 z "},"Ι":{"ha":217,"x_min":0,"x_max":101,"o":"m 0 979 q 50 1031 0 1031 q 101 979 101 1031 l 101 51 q 50 0 101 0 q 0 51 0 0 l 0 979 z "},"Κ":{"ha":775,"x_min":0,"x_max":704,"o":"m 0 988 q 50 1031 0 1031 q 103 988 103 1031 l 103 596 l 588 1015 q 619 1028 603 1028 q 659 1010 642 1028 q 676 972 676 993 q 663 940 676 953 l 193 539 l 686 90 q 704 53 704 74 q 689 17 704 32 q 651 1 674 1 q 604 22 626 1 l 103 494 l 103 44 q 53 -1 103 -1 q 0 44 0 -1 l 0 988 z "},"Λ":{"ha":914,"x_min":0,"x_max":833,"o":"m 725 56 l 411 889 l 106 42 q 51 0 90 0 q 15 13 31 0 q 0 44 0 25 q 3 60 0 53 l 332 968 q 411 1032 354 1032 q 490 968 467 1032 l 826 78 q 833 44 833 60 q 792 -1 833 -1 q 725 56 746 -1 z "},"Μ":{"ha":1213,"x_min":-8,"x_max":1119,"o":"m 322 940 l 550 172 l 790 940 q 886 1031 818 1031 q 972 929 957 1031 l 1115 63 q 1106 18 1119 35 q 1068 1 1092 1 q 1010 57 1018 1 l 882 906 l 607 60 q 550 0 586 0 q 493 60 513 0 l 229 906 l 104 58 q 44 1 96 1 q 1 65 -8 1 l 139 929 q 228 1033 154 1033 q 322 940 294 1033 z "},"Ν":{"ha":879,"x_min":0,"x_max":765,"o":"m 0 969 q 50 1031 0 1031 q 122 981 89 1031 l 664 183 l 664 976 q 714 1029 664 1029 q 765 976 765 1029 l 765 61 q 715 -1 765 -1 q 646 42 675 -1 l 101 836 l 101 53 q 51 -1 101 -1 q 0 53 0 -1 l 0 969 z "},"Ξ":{"ha":794,"x_min":0,"x_max":760,"o":"m 689 1029 q 740 978 740 1029 q 689 928 740 928 l 71 928 q 19 978 19 928 q 71 1029 19 1029 l 689 1029 m 161 585 l 607 585 q 658 532 658 585 q 607 483 658 483 l 161 483 q 111 536 111 483 q 161 585 111 585 m 701 106 q 760 53 760 106 q 701 3 760 3 l 60 3 q 0 54 0 3 q 60 106 0 106 l 701 106 z "},"Ο":{"ha":997,"x_min":0,"x_max":893,"o":"m 442 1063 q 779 893 654 1063 q 893 521 893 740 q 781 151 893 303 q 442 -17 656 -17 q 111 154 235 -17 q 0 526 0 307 q 110 896 0 744 q 442 1063 232 1063 m 442 961 q 197 826 286 961 q 117 531 117 706 q 199 225 117 351 q 442 86 290 86 q 693 221 601 86 q 776 518 776 342 q 692 822 776 697 q 442 961 599 961 z "},"Π":{"ha":890,"x_min":0,"x_max":776,"o":"m 724 1032 q 760 1016 744 1032 q 776 979 776 1000 l 776 51 q 726 -1 776 -1 q 675 51 675 -1 l 675 928 l 101 928 l 101 51 q 49 0 101 0 q 0 51 0 0 l 0 979 q 50 1032 0 1032 l 724 1032 z "},"Ρ":{"ha":703,"x_min":0,"x_max":636,"o":"m 0 974 q 57 1029 0 1029 l 310 1029 q 556 931 465 1029 q 636 714 636 843 q 560 500 636 589 q 332 404 475 404 l 101 404 l 101 51 q 51 0 101 0 q 0 51 0 0 l 0 974 m 276 928 l 101 928 l 101 506 l 299 506 q 474 571 408 506 q 533 715 533 631 q 469 861 533 801 q 276 928 399 928 z "},"Σ":{"ha":768,"x_min":0,"x_max":717,"o":"m 426 543 l 140 101 l 665 101 q 717 49 717 101 q 665 0 717 0 l 49 0 q 0 58 0 0 q 15 113 0 90 l 293 543 l 44 915 q 18 983 18 954 q 89 1029 18 1029 l 647 1029 q 699 976 699 1029 q 647 926 699 926 l 168 926 l 426 543 z "},"Τ":{"ha":690,"x_min":0,"x_max":621,"o":"m 260 928 l 56 928 q 0 978 0 928 q 56 1029 0 1029 l 568 1029 q 621 978 621 1029 q 568 928 621 928 l 363 928 l 363 58 q 313 0 363 0 q 260 58 260 0 l 260 928 z "},"Υ":{"ha":740,"x_min":0,"x_max":665,"o":"m 274 483 l 10 946 q 0 982 0 964 q 46 1031 0 1031 q 89 1001 72 1031 l 332 596 l 569 999 q 619 1031 589 1031 q 665 986 665 1031 q 657 957 665 971 l 378 483 l 378 60 q 326 0 378 0 q 274 60 274 0 l 274 483 z "},"Φ":{"ha":1004,"x_min":0,"x_max":928,"o":"m 414 938 q 414 1013 414 954 q 465 1064 414 1064 q 517 1008 517 1064 l 515 938 q 824 821 708 938 q 928 567 928 717 q 825 317 928 418 q 515 203 711 203 l 515 53 q 465 -1 515 -1 q 414 53 414 -1 l 414 203 q 103 317 217 203 q 0 568 0 419 q 104 822 0 718 q 414 938 219 938 m 414 299 l 414 842 q 178 756 265 842 q 99 568 99 679 q 178 383 99 458 q 414 299 264 299 m 515 299 q 751 382 664 299 q 829 567 829 457 q 750 756 829 678 q 515 842 663 842 l 515 299 z "},"Χ":{"ha":897,"x_min":0,"x_max":815,"o":"m 347 568 l 67 950 q 53 985 53 968 q 67 1019 53 1006 q 101 1032 82 1032 q 146 1007 128 1032 l 404 640 l 654 1006 q 697 1031 672 1031 q 733 1017 718 1031 q 749 982 749 1003 q 738 950 749 965 l 467 572 l 796 97 q 815 46 815 69 q 768 0 815 0 q 717 29 738 0 l 407 486 l 97 28 q 47 0 78 0 q 0 49 0 0 q 18 96 0 71 l 347 568 z "},"Ψ":{"ha":1007,"x_min":0,"x_max":914,"o":"m 507 331 q 732 393 660 331 q 810 614 810 461 l 810 981 q 861 1032 810 1032 q 914 981 914 1032 l 914 596 q 799 318 914 411 q 507 235 694 235 l 507 50 q 456 -1 507 -1 q 406 50 406 -1 l 406 235 q 114 318 218 235 q 0 596 0 411 l 0 981 q 53 1031 0 1031 q 101 981 101 1031 l 101 614 q 406 331 101 331 l 406 1013 q 456 1064 406 1064 q 507 1013 507 1064 l 507 331 z "},"Ω":{"ha":978,"x_min":0,"x_max":882,"o":"m 440 1064 q 774 924 653 1064 q 882 613 882 799 q 810 339 882 463 q 601 157 733 207 l 589 96 l 790 96 q 838 47 838 96 q 790 0 838 0 l 489 0 l 517 231 q 744 453 678 263 q 735 796 810 635 q 440 974 651 974 q 192 861 281 974 q 111 611 111 761 q 176 369 111 476 q 367 231 249 256 l 388 0 l 92 0 q 44 47 44 0 q 92 96 44 96 l 289 96 l 283 157 q 72 338 150 206 q 0 613 0 461 q 107 924 0 799 q 440 1064 228 1064 z "},"Ϊ":{"ha":217,"x_min":-144,"x_max":251,"o":"m 176 1201 q 232 1180 213 1201 q 251 1129 251 1158 q 232 1078 251 1100 q 178 1057 213 1057 q 123 1080 143 1057 q 103 1132 103 1103 q 176 1201 103 1201 m -78 1201 q -19 1180 -39 1201 q 1 1129 1 1158 q -17 1081 1 1100 q -71 1057 -37 1057 q -125 1079 -106 1057 q -144 1131 -144 1101 q -126 1181 -144 1160 q -78 1201 -108 1201 m 0 979 q 49 1031 0 1031 q 101 979 101 1031 l 101 51 q 49 0 101 0 q 0 51 0 0 l 0 979 z "},"Ϋ":{"ha":740,"x_min":0,"x_max":665,"o":"m 274 483 l 10 946 q 0 982 0 964 q 46 1031 0 1031 q 89 1001 72 1031 l 332 596 l 569 999 q 619 1031 589 1031 q 665 986 665 1031 q 657 957 665 971 l 378 483 l 378 60 q 326 0 378 0 q 274 60 274 0 l 274 483 m 454 1201 q 510 1180 490 1201 q 529 1129 529 1158 q 510 1078 529 1100 q 456 1057 490 1057 q 401 1080 421 1057 q 381 1132 381 1103 q 454 1201 381 1201 m 200 1201 q 259 1180 239 1201 q 279 1129 279 1158 q 261 1081 279 1100 q 207 1057 240 1057 q 153 1079 172 1057 q 133 1131 133 1101 q 151 1181 133 1160 q 200 1201 169 1201 z "},"ά":{"ha":760,"x_min":-3,"x_max":649,"o":"m 265 918 q 240 879 240 907 q 282 832 240 832 q 300 836 290 832 l 546 935 q 583 982 583 949 q 568 1017 583 1001 q 531 1032 553 1032 q 501 1025 517 1032 l 265 918 m 318 69 q 490 169 425 69 q 549 388 549 260 q 492 596 549 511 q 318 690 428 690 q 161 594 219 690 q 110 381 110 507 q 161 167 110 254 q 318 69 219 69 m 318 796 q 455 761 393 796 q 546 669 517 726 q 544 735 546 689 q 597 801 544 801 q 649 738 649 801 l 649 29 q 599 -12 649 -12 q 547 27 549 -12 q 546 86 546 67 q 299 -17 471 -17 q 71 103 154 -17 q -3 369 -3 210 q 79 661 -3 539 q 318 796 169 796 z "},"έ":{"ha":719,"x_min":1,"x_max":651,"o":"m 265 918 q 240 879 240 907 q 282 832 240 832 q 300 836 290 832 l 546 935 q 583 982 583 949 q 568 1017 583 1001 q 531 1032 553 1032 q 501 1025 517 1032 l 265 918 m 117 426 l 374 426 q 422 412 400 426 q 443 372 443 397 q 374 321 443 321 l 117 321 q 190 151 117 225 q 358 78 263 78 q 569 169 478 78 q 600 182 583 182 q 636 166 621 182 q 651 128 651 150 q 629 82 651 103 q 363 -17 532 -17 q 90 110 189 -17 q 1 388 1 222 q 88 668 1 553 q 344 796 185 796 q 628 694 525 796 q 643 660 643 678 q 625 626 643 640 q 586 611 607 611 q 553 624 567 611 q 365 696 482 696 q 194 633 263 696 q 117 426 117 561 z "},"ή":{"ha":689,"x_min":0,"x_max":581,"o":"m 0 739 q 50 797 0 797 q 101 738 101 797 l 101 675 q 318 792 178 792 q 499 722 424 792 q 581 528 581 649 l 581 -271 q 529 -322 581 -322 q 479 -271 479 -322 l 479 517 q 428 644 479 597 q 310 686 381 686 q 168 631 228 686 q 101 460 101 567 l 101 51 q 50 0 101 0 q 0 51 0 0 l 0 739 m 167 918 q 142 879 142 907 q 183 832 142 832 q 201 836 192 832 l 449 935 q 485 982 485 949 q 470 1017 485 1001 q 433 1032 456 1032 q 403 1025 418 1032 l 167 918 z "},"ί":{"ha":217,"x_min":-6,"x_max":339,"o":"m 104 50 q 51 -1 104 -1 q 0 50 0 -1 l 0 718 q 50 769 0 769 q 104 718 104 769 l 104 50 m 21 918 q -6 879 -6 907 q 38 832 -6 832 q 56 836 46 832 l 301 935 q 339 982 339 949 q 324 1017 339 1001 q 286 1032 308 1032 q 257 1025 272 1032 l 21 918 z "},"ΰ":{"ha":690,"x_min":0,"x_max":581,"o":"m 0 719 q 50 771 0 771 q 101 719 101 771 l 101 271 q 160 125 101 178 q 288 76 213 76 q 419 125 365 76 q 479 271 479 181 l 479 719 q 529 771 479 771 q 581 719 581 771 l 581 238 q 431 14 581 81 q 150 13 290 -47 q 0 238 0 76 l 0 719 m 436 964 q 494 942 474 964 q 515 892 515 921 q 496 842 515 861 q 442 818 476 818 q 388 840 407 818 q 368 893 368 863 q 386 943 368 922 q 436 964 404 964 m 111 964 q 171 942 150 964 q 192 892 192 921 q 174 842 192 861 q 118 818 153 818 q 63 842 82 818 q 44 892 44 861 q 63 942 44 921 q 111 964 81 964 m 222 1063 q 197 1022 197 1051 q 242 974 197 974 q 264 978 253 974 l 490 1071 q 524 1118 524 1085 q 475 1168 524 1168 q 446 1163 461 1168 l 222 1063 z "},"α":{"ha":761,"x_min":-3,"x_max":649,"o":"m 318 69 q 490 169 425 69 q 549 388 549 260 q 492 596 549 511 q 318 690 428 690 q 161 594 219 690 q 110 381 110 507 q 161 167 110 254 q 318 69 219 69 m 318 796 q 455 761 393 796 q 546 669 517 726 q 544 735 546 689 q 597 801 544 801 q 649 738 649 801 l 649 29 q 599 -12 649 -12 q 547 27 549 -12 q 546 86 546 67 q 299 -17 471 -17 q 71 103 154 -17 q -3 369 -3 210 q 79 661 -3 539 q 318 796 169 796 z "},"β":{"ha":739,"x_min":0,"x_max":642,"o":"m 103 76 l 103 -261 q 51 -321 103 -321 q 0 -262 0 -321 l 0 804 q 288 1063 0 1063 q 485 981 410 1063 q 551 803 551 906 q 446 615 551 669 q 594 499 542 581 q 642 328 642 424 q 556 94 642 192 q 306 -12 460 -12 q 103 76 158 -12 m 101 289 q 160 142 101 199 q 308 86 218 86 q 464 164 399 86 q 529 338 529 242 q 485 468 529 413 q 333 551 433 529 q 278 600 278 563 q 333 649 278 638 q 417 703 388 661 q 446 797 446 744 q 406 913 446 864 q 286 964 360 964 q 135 886 176 964 q 103 708 103 828 l 101 289 z "},"γ":{"ha":699,"x_min":0,"x_max":615,"o":"m 257 40 q 3 744 232 108 q 0 758 0 751 q 47 796 0 796 q 113 749 96 796 l 311 169 l 506 753 q 565 797 519 797 q 615 760 615 797 q 613 749 615 754 q 500 442 549 575 q 363 40 382 118 q 363 -260 363 40 q 310 -325 363 -325 q 257 -258 257 -325 l 257 40 z "},"δ":{"ha":758,"x_min":0,"x_max":663,"o":"m 336 618 q 168 536 229 618 q 114 357 114 464 q 171 164 114 244 q 333 74 233 74 q 501 153 442 74 q 554 329 554 222 q 497 526 554 442 q 336 618 433 618 m 340 1065 q 481 1035 407 1065 q 603 953 560 1003 q 617 921 617 938 q 599 890 617 903 q 558 876 582 876 q 482 922 556 876 q 349 967 408 967 q 240 934 276 967 q 204 854 204 901 q 241 760 204 803 q 333 711 278 717 q 468 686 424 703 q 579 603 529 663 q 663 336 663 504 q 588 94 663 190 q 333 -17 500 -17 q 81 96 171 -17 q 0 343 0 194 q 50 551 0 458 q 193 689 103 651 q 122 753 149 707 q 96 856 96 800 q 153 999 96 940 q 340 1065 219 1065 z "},"ε":{"ha":719,"x_min":1,"x_max":651,"o":"m 117 426 l 374 426 q 422 412 400 426 q 443 372 443 397 q 374 321 443 321 l 117 321 q 190 151 117 225 q 358 78 263 78 q 569 169 478 78 q 600 182 583 182 q 636 166 621 182 q 651 128 651 150 q 629 82 651 103 q 363 -17 532 -17 q 90 110 189 -17 q 1 388 1 222 q 88 668 1 553 q 344 796 185 796 q 628 694 525 796 q 643 660 643 678 q 625 626 643 640 q 586 611 607 611 q 553 624 567 611 q 365 696 482 696 q 194 633 263 696 q 117 426 117 561 z "},"ζ":{"ha":711,"x_min":0,"x_max":642,"o":"m 294 99 q 639 -92 635 88 q 576 -267 642 -212 q 425 -321 531 -306 q 394 -324 410 -324 q 315 -278 315 -324 q 382 -232 315 -239 q 479 -217 464 -222 q 532 -144 528 -199 q 493 -46 539 -78 q 388 -11 460 -21 q 268 0 328 -6 q 67 122 139 17 q 0 364 0 219 q 86 683 0 531 q 344 929 181 849 l 74 929 q 22 978 22 929 q 74 1029 22 1029 l 589 1031 q 640 981 640 1031 q 592 926 640 933 q 224 725 354 896 q 114 393 114 581 q 164 186 114 271 q 294 99 214 101 z "},"η":{"ha":689,"x_min":0,"x_max":581,"o":"m 0 739 q 50 797 0 797 q 101 738 101 797 l 101 675 q 318 792 178 792 q 499 722 424 792 q 581 528 581 649 l 581 -271 q 529 -322 581 -322 q 479 -271 479 -322 l 479 517 q 428 644 479 597 q 310 686 381 686 q 168 631 228 686 q 101 460 101 567 l 101 51 q 50 0 101 0 q 0 51 0 0 l 0 739 z "},"θ":{"ha":772,"x_min":0,"x_max":668,"o":"m 338 1061 q 585 892 493 1061 q 668 518 668 738 q 586 153 668 301 q 338 -12 494 -12 q 85 154 178 -12 q 0 522 0 304 q 85 893 0 742 q 338 1061 178 1061 m 454 485 l 215 485 q 167 532 167 485 q 215 585 167 585 l 454 585 q 500 532 500 585 q 454 485 500 485 m 342 965 q 169 824 235 965 q 111 517 111 697 q 167 222 111 342 q 335 89 228 89 q 499 229 438 89 q 554 538 554 357 q 501 832 554 713 q 342 965 443 965 z "},"ι":{"ha":217,"x_min":0,"x_max":103,"o":"m 103 50 q 50 -1 103 -1 q 0 50 0 -1 l 0 718 q 50 769 0 769 q 103 718 103 769 l 103 50 z "},"κ":{"ha":599,"x_min":0,"x_max":542,"o":"m 0 718 q 51 771 0 771 q 101 718 101 771 l 101 506 l 432 769 q 464 782 447 782 q 503 765 486 782 q 519 728 519 749 q 490 676 519 699 l 181 438 l 510 110 q 542 44 542 76 q 494 -3 542 -3 q 429 31 461 -3 l 101 356 l 101 53 q 51 1 101 1 q 0 53 0 1 l 0 718 z "},"λ":{"ha":638,"x_min":0,"x_max":585,"o":"m 256 699 l 150 983 q 147 997 147 990 q 193 1032 147 1032 q 257 986 240 1032 l 578 86 q 585 51 585 67 q 538 1 585 1 q 476 49 493 1 l 300 561 l 114 51 q 47 0 94 0 q 0 39 0 0 q 4 57 0 47 l 256 699 z "},"μ":{"ha":692,"x_min":0,"x_max":581,"o":"m 0 719 q 51 771 0 771 q 101 719 101 771 l 101 263 q 154 139 101 185 q 272 96 201 96 q 414 151 356 96 q 479 321 479 215 l 479 719 q 531 771 479 771 q 581 719 581 771 l 581 60 q 531 -1 581 -1 q 481 53 481 -1 q 479 106 479 86 q 260 -12 401 -12 q 101 40 172 -12 l 101 -278 q 50 -329 101 -329 q 0 -278 0 -329 l 0 719 z "},"ν":{"ha":669,"x_min":0,"x_max":582,"o":"m 108 706 l 289 172 l 475 708 q 539 772 497 772 q 582 724 582 772 q 576 697 582 711 l 349 42 q 289 -1 333 -1 q 233 42 249 -1 l 7 694 q 0 731 0 714 q 36 771 0 771 q 108 706 86 771 z "},"ξ":{"ha":686,"x_min":-24,"x_max":636,"o":"m 308 99 q 626 -101 626 92 q 365 -325 626 -306 q 319 -312 336 -328 q 301 -276 301 -297 q 343 -232 301 -239 q 418 -222 381 -228 q 486 -194 464 -215 q 517 -114 517 -168 q 307 -3 517 -3 q 57 117 144 -3 q 15 361 -24 229 q 221 558 58 503 q 106 726 106 611 q 231 933 106 856 l 67 933 q 10 981 10 933 q 68 1029 10 1029 l 586 1029 q 636 978 636 1029 q 586 933 636 933 q 300 874 399 933 q 218 746 218 824 q 266 642 218 686 q 382 597 314 597 q 432 551 432 597 q 381 500 432 504 q 178 425 250 492 q 114 283 114 365 q 165 157 114 210 q 308 99 219 100 z "},"ο":{"ha":778,"x_min":0,"x_max":672,"o":"m 335 796 q 588 665 493 796 q 672 381 672 549 q 589 107 672 218 q 335 -17 497 -17 q 83 111 176 -17 q 0 390 0 225 q 83 669 0 556 q 335 796 176 796 m 335 703 q 169 608 229 703 q 117 400 117 525 q 172 176 117 271 q 335 74 235 74 q 503 167 443 74 q 557 372 557 249 q 499 599 557 503 q 335 703 436 703 z "},"ρ":{"ha":758,"x_min":0,"x_max":658,"o":"m 321 703 q 157 607 217 703 q 103 394 103 521 q 158 175 103 265 q 321 74 219 74 q 485 169 425 74 q 539 382 539 256 q 483 601 539 511 q 321 703 422 703 m 0 392 q 79 668 0 554 q 321 796 168 796 q 574 667 479 796 q 658 383 658 550 q 575 108 658 219 q 321 -17 482 -17 q 103 93 199 -17 l 103 -269 q 50 -321 103 -321 q 0 -269 0 -321 l 0 392 z "},"ς":{"ha":631,"x_min":0,"x_max":603,"o":"m 485 -110 q 358 4 485 -46 q 125 121 182 74 q 0 421 0 225 q 103 685 0 574 q 347 796 207 796 q 518 746 436 796 q 561 688 561 719 q 545 653 561 667 q 507 640 529 640 q 468 650 486 640 q 347 686 406 686 q 178 585 246 686 q 118 401 118 496 q 243 175 118 253 q 476 72 360 124 q 603 -89 603 14 q 525 -260 603 -196 q 351 -326 457 -317 q 276 -317 304 -331 q 249 -282 249 -303 q 326 -231 249 -240 q 431 -203 399 -221 q 485 -110 485 -174 z "},"σ":{"ha":863,"x_min":0,"x_max":776,"o":"m 347 794 q 458 781 383 794 q 725 768 532 768 q 776 719 776 768 q 725 675 776 675 l 583 675 q 674 375 674 558 q 594 107 674 213 q 339 -17 506 -17 q 86 114 182 -17 q 0 399 0 232 q 85 671 0 561 q 347 794 181 794 m 339 74 q 506 167 446 74 q 560 372 560 249 q 503 597 560 503 q 339 701 439 701 q 172 607 233 701 q 119 400 119 524 q 175 176 119 269 q 339 74 238 74 z "},"τ":{"ha":650,"x_min":0,"x_max":576,"o":"m 335 678 l 335 63 q 283 1 335 1 q 233 63 233 1 l 233 678 l 54 676 q 0 722 0 676 q 54 769 0 769 l 525 769 q 576 722 576 769 q 525 678 576 678 l 335 678 z "},"υ":{"ha":693,"x_min":0,"x_max":581,"o":"m 0 719 q 50 771 0 771 q 101 719 101 771 l 101 271 q 160 125 101 178 q 288 76 213 76 q 419 125 365 76 q 479 271 479 181 l 479 719 q 529 771 479 771 q 581 719 581 771 l 581 238 q 431 14 581 81 q 150 13 290 -47 q 0 238 0 76 l 0 719 z "},"φ":{"ha":999,"x_min":0,"x_max":899,"o":"m 335 783 q 363 768 351 783 q 375 735 375 753 q 332 690 375 697 q 161 590 221 674 q 107 408 107 514 q 179 183 107 279 q 378 79 257 79 l 378 432 q 414 675 378 601 q 617 783 467 783 q 824 668 743 783 q 899 410 899 560 q 800 124 899 239 q 479 -12 686 -10 l 479 -271 q 429 -324 479 -324 q 378 -271 378 -324 l 378 -12 q 94 118 200 -12 q 0 404 0 236 q 83 665 0 560 q 335 783 176 783 m 479 82 q 721 188 636 82 q 792 411 792 276 q 744 606 792 524 q 617 693 693 693 q 492 601 519 693 q 479 429 479 560 l 479 82 z "},"χ":{"ha":689,"x_min":-8,"x_max":632,"o":"m 246 240 l 44 682 q 33 724 33 704 q 83 775 33 775 q 135 742 121 775 l 306 354 l 496 739 q 544 772 513 772 q 581 757 565 772 q 596 718 596 742 q 586 679 596 700 l 363 240 l 613 -237 q 618 -301 632 -275 q 578 -325 607 -325 q 514 -278 539 -325 l 304 132 l 110 -283 q 43 -328 89 -328 q 4 -306 15 -328 q 13 -240 -8 -282 l 246 240 z "},"ψ":{"ha":1040,"x_min":0,"x_max":942,"o":"m 521 739 l 521 79 q 745 164 654 79 q 836 386 836 249 l 836 649 q 886 713 836 713 q 925 695 908 713 q 942 647 942 678 l 942 396 q 820 103 942 219 q 521 -17 699 -14 l 521 -253 q 469 -326 521 -326 q 419 -253 419 -326 l 419 -17 q 122 101 243 -17 q 0 396 0 219 l 0 647 q 49 714 0 714 q 88 696 71 714 q 106 649 106 678 l 106 396 q 197 163 106 250 q 419 79 285 79 l 419 739 q 469 794 419 794 q 521 739 521 794 z "},"ω":{"ha":1046,"x_min":0,"x_max":936,"o":"m 936 381 q 840 69 936 178 q 643 -19 761 -19 q 533 7 582 -19 q 468 76 485 33 q 402 8 451 35 q 292 -18 353 -18 q 96 69 174 -18 q 0 381 0 176 q 68 643 0 529 q 290 778 150 778 q 331 762 314 778 q 347 726 347 746 q 301 685 347 692 q 113 381 113 654 q 172 146 113 231 q 294 74 222 74 q 381 113 346 74 q 417 221 417 153 l 417 371 q 469 432 417 432 q 521 367 521 432 l 521 213 q 553 106 521 144 q 626 71 581 71 q 757 149 700 71 q 822 381 822 238 q 631 685 822 633 q 585 729 585 697 q 602 763 585 747 q 644 778 619 778 q 867 643 785 778 q 936 381 936 529 z "},"ϊ":{"ha":217,"x_min":-137,"x_max":253,"o":"m 174 964 q 232 942 211 964 q 253 892 253 921 q 235 842 253 861 q 181 818 214 818 q 125 840 144 818 q 106 893 106 863 q 124 943 106 922 q 174 964 142 964 m -69 964 q -10 942 -31 964 q 11 892 11 921 q -8 842 11 861 q -64 818 -29 818 q -119 842 -99 818 q -137 892 -137 861 q -119 942 -137 921 q -69 964 -101 964 m 114 50 q 61 -1 114 -1 q 11 50 11 -1 l 11 718 q 61 769 11 769 q 114 718 114 769 l 114 50 z "},"ϋ":{"ha":689,"x_min":0,"x_max":581,"o":"m 410 964 q 469 942 449 964 q 489 892 489 921 q 471 842 489 861 q 417 818 450 818 q 362 840 382 818 q 342 893 342 863 q 360 943 342 922 q 410 964 378 964 m 167 964 q 226 942 206 964 q 247 892 247 921 q 229 842 247 861 q 174 818 208 818 q 118 842 138 818 q 100 892 100 861 q 118 942 100 921 q 167 964 136 964 m 0 719 q 50 771 0 771 q 101 719 101 771 l 101 271 q 160 125 101 178 q 288 76 213 76 q 419 125 365 76 q 479 271 479 181 l 479 719 q 529 771 479 771 q 581 719 581 771 l 581 238 q 431 14 581 81 q 150 13 290 -47 q 0 238 0 76 l 0 719 z "},"ό":{"ha":774,"x_min":0,"x_max":672,"o":"m 335 796 q 588 665 493 796 q 672 381 672 549 q 589 107 672 218 q 335 -17 497 -17 q 83 111 176 -17 q 0 390 0 225 q 83 669 0 556 q 335 796 176 796 m 335 703 q 169 608 229 703 q 117 400 117 525 q 172 176 117 271 q 335 74 235 74 q 503 167 443 74 q 557 372 557 249 q 499 599 557 503 q 335 703 436 703 m 265 918 q 240 879 240 907 q 282 832 240 832 q 300 836 290 832 l 546 935 q 583 982 583 949 q 568 1017 583 1001 q 531 1032 553 1032 q 501 1025 517 1032 l 265 918 z "},"ύ":{"ha":689,"x_min":0,"x_max":581,"o":"m 0 719 q 50 771 0 771 q 101 719 101 771 l 101 271 q 160 125 101 178 q 288 76 213 76 q 419 125 365 76 q 479 271 479 181 l 479 719 q 529 771 479 771 q 581 719 581 771 l 581 238 q 431 14 581 81 q 150 13 290 -47 q 0 238 0 76 l 0 719 m 232 918 q 207 879 207 907 q 249 832 207 832 q 267 836 257 832 l 514 935 q 550 982 550 949 q 535 1017 550 1001 q 499 1032 521 1032 q 468 1025 483 1032 l 232 918 z "},"ώ":{"ha":1046,"x_min":0,"x_max":936,"o":"m 936 381 q 840 69 936 178 q 644 -19 761 -19 q 534 7 583 -19 q 468 76 485 33 q 402 8 451 35 q 292 -18 353 -18 q 96 69 174 -18 q 0 381 0 176 q 68 643 0 529 q 290 778 150 778 q 331 762 314 778 q 347 726 347 746 q 301 685 347 692 q 113 381 113 654 q 172 146 113 231 q 294 74 222 74 q 381 113 346 74 q 417 221 417 153 l 417 371 q 469 432 417 432 q 521 367 521 432 l 521 213 q 553 106 521 144 q 626 71 581 71 q 757 149 700 71 q 822 381 822 238 q 631 685 822 633 q 585 729 585 697 q 602 763 585 747 q 644 778 619 778 q 867 643 785 778 q 936 381 936 529 m 428 918 q 403 879 403 907 q 444 832 403 832 q 463 836 453 832 l 710 935 q 746 982 746 949 q 731 1017 746 1001 q 694 1032 717 1032 q 664 1025 679 1032 l 428 918 z "}}}
